<svg width="1512" height="1737" viewBox="0 0 1512 1737" fill="none" xmlns="http://www.w3.org/2000/svg">
<path d="M306.546 709V1810" stroke="white" stroke-width="0.5" stroke-miterlimit="10"/>
<path d="M271.944 710.058L341.106 1808.95" stroke="white" stroke-width="0.5" stroke-miterlimit="10"/>
<path d="M237.53 713.326L375.522 1805.68" stroke="white" stroke-width="0.5" stroke-miterlimit="10"/>
<path d="M203.347 718.698L409.67 1800.25" stroke="white" stroke-width="0.5" stroke-miterlimit="10"/>
<path d="M169.602 726.294L443.425 1792.71" stroke="white" stroke-width="0.5" stroke-miterlimit="10"/>
<path d="M136.389 735.935L476.658 1783.07" stroke="white" stroke-width="0.5" stroke-miterlimit="10"/>
<path d="M103.865 747.627L509.196 1771.37" stroke="white" stroke-width="0.5" stroke-miterlimit="10"/>
<path d="M72.1074 761.368L540.948 1757.63" stroke="white" stroke-width="0.5" stroke-miterlimit="10"/>
<path d="M41.312 777.053L571.778 1741.94" stroke="white" stroke-width="0.5" stroke-miterlimit="10"/>
<path d="M11.5338 794.68L601.519 1724.33" stroke="white" stroke-width="0.5" stroke-miterlimit="10"/>
<path d="M-17.0677 814.137L630.11 1704.88" stroke="white" stroke-width="0.5" stroke-miterlimit="10"/>
<path d="M-44.3861 835.299L657.434 1683.7" stroke="white" stroke-width="0.5" stroke-miterlimit="10"/>
<path d="M-70.3267 858.19L683.365 1660.82" stroke="white" stroke-width="0.5" stroke-miterlimit="10"/>
<path d="M-94.8091 882.63L707.817 1636.38" stroke="white" stroke-width="0.5" stroke-miterlimit="10"/>
<path d="M-117.643 908.565L730.704 1610.44" stroke="white" stroke-width="0.5" stroke-miterlimit="10"/>
<path d="M-138.873 935.886L751.924 1583.12" stroke="white" stroke-width="0.5" stroke-miterlimit="10"/>
<path d="M-158.302 964.536L771.344 1554.47" stroke="white" stroke-width="0.5" stroke-miterlimit="10"/>
<path d="M-175.905 994.294L788.931 1524.71" stroke="white" stroke-width="0.5" stroke-miterlimit="10"/>
<path d="M-191.624 1025.11L804.635 1493.89" stroke="white" stroke-width="0.5" stroke-miterlimit="10"/>
<path d="M-205.374 1056.87L818.372 1462.14" stroke="white" stroke-width="0.5" stroke-miterlimit="10"/>
<path d="M-217.071 1089.39L830.117 1429.61" stroke="white" stroke-width="0.5" stroke-miterlimit="10"/>
<path d="M-226.702 1122.59L839.772 1396.41" stroke="white" stroke-width="0.5" stroke-miterlimit="10"/>
<path d="M-234.261 1156.35L847.287 1362.67" stroke="white" stroke-width="0.5" stroke-miterlimit="10"/>
<path d="M-239.683 1190.47L852.671 1328.52" stroke="white" stroke-width="0.5" stroke-miterlimit="10"/>
<path d="M-242.947 1224.96L855.947 1294.07" stroke="white" stroke-width="0.5" stroke-miterlimit="10"/>
<path d="M-244 1259.47H857.056" stroke="white" stroke-width="0.5" stroke-miterlimit="10"/>
<path d="M-242.947 1294.07L855.947 1224.96" stroke="white" stroke-width="0.5" stroke-miterlimit="10"/>
<path d="M-239.683 1328.52L852.671 1190.47" stroke="white" stroke-width="0.5" stroke-miterlimit="10"/>
<path d="M-234.261 1362.67L847.287 1156.35" stroke="white" stroke-width="0.5" stroke-miterlimit="10"/>
<path d="M-226.702 1396.41L839.772 1122.59" stroke="white" stroke-width="0.5" stroke-miterlimit="10"/>
<path d="M-217.071 1429.61L830.117 1089.39" stroke="white" stroke-width="0.5" stroke-miterlimit="10"/>
<path d="M-205.374 1462.14L818.372 1056.87" stroke="white" stroke-width="0.5" stroke-miterlimit="10"/>
<path d="M-191.624 1493.89L804.635 1025.11" stroke="white" stroke-width="0.5" stroke-miterlimit="10"/>
<path d="M-175.905 1524.71L788.931 994.294" stroke="white" stroke-width="0.5" stroke-miterlimit="10"/>
<path d="M-158.302 1554.47L771.344 964.536" stroke="white" stroke-width="0.5" stroke-miterlimit="10"/>
<path d="M-138.873 1583.12L751.924 935.886" stroke="white" stroke-width="0.5" stroke-miterlimit="10"/>
<path d="M-117.643 1610.44L730.704 908.565" stroke="white" stroke-width="0.5" stroke-miterlimit="10"/>
<path d="M-94.8091 1636.38L707.817 882.63" stroke="white" stroke-width="0.5" stroke-miterlimit="10"/>
<path d="M-70.3267 1660.82L683.365 858.19" stroke="white" stroke-width="0.5" stroke-miterlimit="10"/>
<path d="M-44.3861 1683.7L657.434 835.299" stroke="white" stroke-width="0.5" stroke-miterlimit="10"/>
<path d="M-17.0677 1704.88L630.11 814.137" stroke="white" stroke-width="0.5" stroke-miterlimit="10"/>
<path d="M11.5338 1724.33L601.519 794.68" stroke="white" stroke-width="0.5" stroke-miterlimit="10"/>
<path d="M41.312 1741.94L571.778 777.053" stroke="white" stroke-width="0.5" stroke-miterlimit="10"/>
<path d="M72.1074 1757.63L540.948 761.368" stroke="white" stroke-width="0.5" stroke-miterlimit="10"/>
<path d="M103.865 1771.37L509.196 747.627" stroke="white" stroke-width="0.5" stroke-miterlimit="10"/>
<path d="M136.389 1783.07L476.658 735.935" stroke="white" stroke-width="0.5" stroke-miterlimit="10"/>
<path d="M169.602 1792.71L443.425 726.294" stroke="white" stroke-width="0.5" stroke-miterlimit="10"/>
<path d="M203.347 1800.25L409.67 718.698" stroke="white" stroke-width="0.5" stroke-miterlimit="10"/>
<path d="M237.53 1805.68L375.522 713.326" stroke="white" stroke-width="0.5" stroke-miterlimit="10"/>
<path d="M271.944 1808.95L341.106 710.058" stroke="white" stroke-width="0.5" stroke-miterlimit="10"/>
<g filter="url(#filter0_f_15_551)">
<circle cx="-44.5" cy="1941.5" r="866.5" fill="#0042ED" fill-opacity="0.64"/>
</g>
<defs>
<filter id="filter0_f_15_551" x="-1985.76" y="0.242554" width="3882.51" height="3882.51" filterUnits="userSpaceOnUse" color-interpolation-filters="sRGB">
<feFlood flood-opacity="0" result="BackgroundImageFix"/>
<feBlend mode="normal" in="SourceGraphic" in2="BackgroundImageFix" result="shape"/>
<feGaussianBlur stdDeviation="537.379" result="effect1_foregroundBlur_15_551"/>
</filter>
</defs>
</svg>
