<svg width="1776" height="583" viewBox="0 0 1776 583" fill="none" xmlns="http://www.w3.org/2000/svg">
<path d="M886.697 582.991C1044.58 582.991 1172.57 575.519 1172.57 566.301C1172.57 557.084 1044.58 549.611 886.697 549.611C728.817 549.611 600.829 557.084 600.829 566.301C600.829 575.519 728.817 582.991 886.697 582.991Z" fill="#FFFEFE"/>
<path d="M649.882 528.218C649.882 528.218 647.847 513.224 638.249 511.587C628.651 509.951 631.541 502.741 629.049 499.881C626.557 497.02 620.026 505.351 625.614 513.386C631.201 521.421 626.631 518.886 629.049 526.346C631.467 533.806 650.796 540.662 649.882 528.218Z" fill="#263238"/>
<path opacity="0.2" d="M649.882 528.218C649.882 528.218 647.847 513.224 638.249 511.587C628.651 509.951 631.541 502.741 629.049 499.881C626.557 497.02 620.026 505.351 625.614 513.386C631.201 521.421 626.631 518.886 629.049 526.346C631.467 533.806 650.796 540.662 649.882 528.218Z" fill="#E8F9FF"/>
<path d="M649.482 537.935C649.482 537.935 642.11 522.66 645.988 497.714C649.865 472.767 664.344 463.095 651.753 435.657C639.161 408.218 624.742 388.653 631.952 369.177" stroke="#263238" stroke-width="1.32695" stroke-linecap="round" stroke-linejoin="round"/>
<path d="M643.954 534.986C643.954 534.986 637.747 525.638 646.697 520.832C655.646 516.025 657.445 519.903 662.915 516.409C668.385 512.914 672.646 504.613 673.589 509.936C674.533 515.259 668.149 518.355 670.405 520.802C672.661 523.25 655.41 539.173 643.954 534.986Z" fill="#263238"/>
<path d="M629.315 377.005C629.315 377.005 623.284 358.649 637.026 358.266C650.767 357.883 635.61 375.045 629.315 377.005Z" fill="#263238"/>
<path d="M641.257 391.13C641.257 391.13 645.356 374.425 655.101 377.949C664.847 381.472 650.973 391.439 641.257 391.13Z" fill="#263238"/>
<path d="M624.713 392.575C624.713 392.575 626.187 379.306 615.867 378.981C605.546 378.657 610.087 390.496 624.713 392.575Z" fill="#263238"/>
<path d="M631.628 419.748C631.628 419.748 617.74 407.363 612.741 416.578C607.743 425.793 623.195 427.709 631.628 419.748Z" fill="#263238"/>
<path d="M656.163 417.551C656.163 417.551 658.773 396.91 669.993 403.441C681.213 409.973 665.938 419.615 656.163 417.551Z" fill="#263238"/>
<path d="M666.041 446.994C666.041 446.994 657.755 426.22 673.147 428.564C688.54 430.909 676.907 441.952 666.041 446.994Z" fill="#263238"/>
<path d="M642.42 454.411C642.42 454.411 629.431 439.151 619.494 443.958C609.556 448.764 617.68 464.024 642.42 454.411Z" fill="#263238"/>
<path d="M654.217 488.336C654.217 488.336 665.289 463.743 675.138 472.029C684.987 480.315 668.857 492.7 654.217 488.336Z" fill="#263238"/>
<path d="M638.129 486.892C638.129 486.892 641.078 467.813 630.094 469.347C619.11 470.88 622.014 482.557 638.129 486.892Z" fill="#263238"/>
<g opacity="0.2">
<path d="M629.313 377.005C629.313 377.005 623.282 358.649 637.024 358.266C650.765 357.883 635.608 375.045 629.313 377.005Z" fill="#E8F9FF"/>
<path d="M641.257 391.13C641.257 391.13 645.356 374.425 655.101 377.949C664.847 381.472 650.973 391.439 641.257 391.13Z" fill="#E8F9FF"/>
<path d="M624.713 392.575C624.713 392.575 626.187 379.306 615.867 378.981C605.546 378.657 610.087 390.496 624.713 392.575Z" fill="#E8F9FF"/>
<path d="M631.627 419.748C631.627 419.748 617.739 407.363 612.74 416.578C607.742 425.793 623.194 427.709 631.627 419.748Z" fill="#E8F9FF"/>
<path d="M656.161 417.551C656.161 417.551 658.771 396.909 669.991 403.441C681.211 409.972 665.936 419.615 656.161 417.551Z" fill="#E8F9FF"/>
<path d="M666.04 446.994C666.04 446.994 657.754 426.22 673.146 428.564C688.539 430.909 676.906 441.952 666.04 446.994Z" fill="#E8F9FF"/>
<path d="M642.419 454.411C642.419 454.411 629.43 439.151 619.493 443.958C609.555 448.764 617.679 464.024 642.419 454.411Z" fill="#E8F9FF"/>
<path d="M654.217 488.336C654.217 488.336 665.289 463.743 675.138 472.029C684.987 480.315 668.857 492.7 654.217 488.336Z" fill="#E8F9FF"/>
<path d="M638.129 486.892C638.129 486.892 641.078 467.813 630.094 469.347C619.11 470.88 622.014 482.557 638.129 486.892Z" fill="#E8F9FF"/>
</g>
<path d="M621.308 388.196C621.308 388.196 627.205 397.043 635.314 401.466C635.314 401.466 640.652 391.145 644.824 388.639" stroke="#263238" stroke-width="1.32695" stroke-linecap="round" stroke-linejoin="round"/>
<path d="M620.924 418.509C620.924 418.509 635.963 418.022 647.861 427.016C647.861 427.016 654.466 415.811 663.135 410.709" stroke="#263238" stroke-width="1.32695" stroke-linecap="round" stroke-linejoin="round"/>
<path d="M670.568 437.16C670.568 437.16 664.125 454.13 655.824 460.75C655.824 460.75 638.751 450.842 626.204 450.592" stroke="#263238" stroke-width="1.32695" stroke-linecap="round" stroke-linejoin="round"/>
<path d="M631.364 475.539C631.364 475.539 639.798 492.008 646.108 495.605C650.913 489.745 657.412 485.512 664.715 483.486" stroke="#263238" stroke-width="1.32695" stroke-linecap="round" stroke-linejoin="round"/>
<path d="M644.897 532.745C644.897 532.745 639.575 524.282 633.574 523.073C627.573 521.864 624.978 514.949 622.767 519.107C620.555 523.265 626.659 537.065 644.897 532.745Z" fill="#263238"/>
<path d="M623.24 565.948H667.589L670.553 530.135H620.276L623.24 565.948Z" fill="#C0EAFF"/>
<path d="M619.229 536.932H671.584L672.262 529.339H618.565L619.229 536.932Z" fill="white"/>
<path d="M707.339 318.246C707.496 318.075 707.68 317.93 707.884 317.819L734.511 265.213L722.274 267.587L711.541 288.597C711.608 288.612 711.672 288.637 711.732 288.67C711.922 288.804 712.053 289.007 712.096 289.235C712.14 289.463 712.094 289.699 711.968 289.894C711.717 290.263 711.526 290.661 711.305 291.044C711.496 291.162 711.673 291.309 711.865 291.413C712.01 291.511 712.123 291.651 712.188 291.814C712.254 291.976 712.27 292.155 712.234 292.327C712.197 292.497 712.113 292.653 711.99 292.776C711.867 292.899 711.711 292.984 711.541 293.02L711.246 293.182H711.172H711.083L710.508 293.447H710.376L710.169 293.61L709.712 294.008L709.476 294.258L709.373 294.376L708.96 294.907C708.665 295.305 708.4 295.718 708.12 296.131C707.983 296.323 707.777 296.455 707.545 296.499L691.843 327.255L693.317 335.187L700.291 333.831C700.515 333.17 700.888 332.569 701.382 332.076C701.616 331.857 701.873 331.664 702.149 331.501C702.141 331.447 702.141 331.393 702.149 331.339C702.479 327.769 703.641 324.325 705.54 321.284C705.445 321.136 705.395 320.965 705.395 320.79C705.395 320.615 705.445 320.443 705.54 320.296C705.78 319.876 705.874 319.389 705.805 318.91C705.807 318.733 705.86 318.561 705.958 318.413C706.056 318.266 706.194 318.15 706.356 318.08C706.519 318.01 706.698 317.988 706.872 318.018C707.046 318.047 707.208 318.127 707.339 318.246Z" fill="white"/>
<path d="M753.207 313.572C753.192 313.793 753.132 314.009 753.03 314.206C752.593 315.062 751.882 315.747 751.01 316.152C750.833 316.418 750.642 316.668 750.48 316.919C750.384 317.053 750.251 317.156 750.096 317.214C750.096 317.346 749.993 317.494 749.964 317.627C749.929 317.741 749.871 317.847 749.795 317.939C749.718 318.031 749.623 318.106 749.516 318.16C749.409 318.214 749.293 318.246 749.173 318.253C749.054 318.261 748.934 318.244 748.822 318.204C748.709 318.164 748.605 318.102 748.517 318.021C748.429 317.94 748.359 317.842 748.31 317.733C748.261 317.624 748.234 317.506 748.232 317.386C748.23 317.266 748.252 317.148 748.298 317.037C748.443 316.531 748.63 316.037 748.858 315.562L748.017 315.725C747.789 315.764 747.555 315.714 747.362 315.585C747.17 315.456 747.035 315.258 746.985 315.032C746.963 314.965 746.963 314.892 746.985 314.825L746.469 314.929L743.137 297.604L732.492 299.669L735.824 316.889L709.477 321.991C709.3 322.079 709.138 322.212 708.961 322.315V322.433C709.026 322.624 709.024 322.831 708.956 323.02C708.887 323.209 708.756 323.369 708.584 323.474C708.413 323.579 708.21 323.622 708.011 323.596C707.811 323.57 707.626 323.477 707.487 323.332C706.995 323.755 706.546 324.224 706.145 324.733C706.299 324.689 706.462 324.69 706.616 324.734C706.769 324.778 706.908 324.865 707.015 324.984C707.097 325.065 707.162 325.161 707.206 325.267C707.251 325.374 707.274 325.488 707.274 325.603C707.274 325.718 707.251 325.832 707.206 325.939C707.162 326.045 707.097 326.141 707.015 326.222L706.307 326.812C706.397 326.961 706.444 327.132 706.444 327.306C706.444 327.48 706.397 327.651 706.307 327.8V327.903C706.3 327.957 706.3 328.011 706.307 328.065C706.307 328.272 706.307 328.493 706.307 328.714C706.276 329.11 706.103 329.482 705.821 329.761C705.499 330.037 705.105 330.216 704.685 330.277H704.582C704.623 330.717 704.687 331.155 704.774 331.589C704.974 331.989 705.132 332.409 705.245 332.842L737.52 326.591L741.147 346.259L752.146 344.136L748.371 324.645L763.425 321.696L761.537 311.965L753.207 313.572Z" fill="white"/>
<path d="M817.107 260.495L816.399 261.114C816.06 261.409 815.736 261.704 815.426 262.013L815.028 262.456L814.807 262.721C814.554 263.089 814.176 263.352 813.744 263.462C813.311 263.572 812.854 263.522 812.456 263.32C812.058 263.118 811.747 262.779 811.58 262.365C811.413 261.951 811.402 261.491 811.549 261.07L811.961 259.507C811.961 259.507 811.843 259.389 811.799 259.301C811.679 259.079 811.619 258.83 811.622 258.578C811.593 258.339 811.624 258.096 811.711 257.87C811.711 257.693 811.843 257.517 811.917 257.34C811.594 257.027 811.325 256.663 811.121 256.263V256.145C804.902 252.874 797.732 251.893 790.863 253.374C772.286 256.971 761.375 274.384 766.329 300.2C771.283 326.016 788.003 338.077 806.58 334.479C808.249 334.161 809.891 333.713 811.49 333.138C812.006 332.401 812.522 331.663 812.964 330.941C813.139 330.688 813.375 330.484 813.65 330.346C813.925 330.209 814.23 330.143 814.537 330.155C814.844 330.166 815.143 330.255 815.407 330.413C815.671 330.572 815.89 330.793 816.045 331.059C828.533 324.1 835.021 308.663 830.951 287.668C828.637 275.489 823.653 266.348 817.107 260.495ZM804.634 324.409C792.175 326.827 781.589 318.305 777.652 298.018C773.716 277.73 780.351 265.876 792.809 263.473C796.083 262.765 799.487 262.961 802.658 264.039C805.829 265.116 808.647 267.036 810.811 269.592C811.021 269.443 811.256 269.333 811.504 269.267C811.987 269.181 812.484 269.286 812.889 269.562C813.294 269.838 813.575 270.261 813.672 270.742C813.828 271.677 813.853 272.63 813.745 273.573C816.672 278.579 818.67 284.074 819.643 289.791C823.609 310.152 816.974 322.021 804.634 324.409Z" fill="white"/>
<path d="M897.83 285.544L894.497 268.323L883.838 270.388L887.184 287.608L856.709 293.506L885.858 235.917L873.62 238.276L862.665 259.743C862.562 262.423 862.019 265.068 861.058 267.572C860.991 267.737 860.876 267.879 860.727 267.979C860.579 268.079 860.404 268.132 860.225 268.132C860.047 268.132 859.872 268.079 859.723 267.979C859.575 267.879 859.46 267.737 859.392 267.572C859.098 269.857 858.025 271.97 856.355 273.558C856.246 273.659 856.111 273.728 855.965 273.757C855.82 273.785 855.668 273.772 855.529 273.72L843.13 298.018L844.604 305.95L862.946 302.396C864.51 301.152 866.359 300.316 868.327 299.964C870.055 299.564 871.818 299.332 873.591 299.271C874.92 299.169 876.257 299.269 877.557 299.566L888.674 297.413L892.448 316.89L903.432 314.767L899.658 295.29L914.726 292.341L912.839 282.61L897.83 285.544Z" fill="white"/>
<path d="M695.178 238.35L693.438 229.385L711.425 225.906L710.069 218.932L692.082 222.412L690.46 213.993L710.821 210.056L709.347 202.861L680.08 208.538L682.587 221.453C683.033 221.681 683.429 221.997 683.751 222.382C684.307 223.084 684.641 223.937 684.71 224.83C684.901 226.673 684.444 228.575 684.71 230.359C684.746 230.508 684.737 230.664 684.684 230.808C684.632 230.953 684.538 231.078 684.415 231.169L687.658 247.27L717.647 241.461L716.261 234.207L695.178 238.35Z" fill="white"/>
<path d="M747.987 222.662C750.162 221.283 751.869 219.277 752.882 216.908C753.896 214.539 754.168 211.919 753.663 209.393C753.514 209.548 753.316 209.647 753.103 209.673C752.93 209.685 752.758 209.645 752.608 209.558C752.459 209.471 752.338 209.342 752.262 209.187C752.061 208.716 751.927 208.22 751.864 207.712C751.864 207.638 751.864 207.579 751.864 207.506C751.592 207.157 751.396 206.756 751.289 206.326C751.254 206.096 751.307 205.862 751.439 205.67C751.57 205.478 751.77 205.344 751.997 205.294C752.087 205.271 752.18 205.267 752.272 205.282C752.363 205.297 752.45 205.332 752.528 205.383C749.712 199.087 742.93 196.286 734.054 198.011L717.29 201.254L719.561 212.946C719.74 213.022 719.883 213.165 719.959 213.344C721.385 216.242 722.275 219.374 722.583 222.589C722.618 222.818 722.565 223.053 722.434 223.245C722.302 223.437 722.102 223.571 721.875 223.621C721.792 223.635 721.708 223.635 721.625 223.621L724.795 240.104L733.759 238.365L731.665 227.587L739.907 225.98L749.461 235.327L759.089 233.455L747.987 222.662ZM737.578 218.991L730.206 220.466L727.581 206.975L734.953 205.501C740.423 204.439 743.681 206.385 744.507 210.646C745.333 214.907 743.062 217.989 737.578 218.991Z" fill="white"/>
<path d="M788.666 214.773C790.914 213.345 792.661 211.25 793.663 208.782C794.665 206.313 794.871 203.594 794.253 201.002C792.573 192.318 785.068 188.205 774.718 190.21L757.954 193.468L765.459 232.186L774.423 230.461L772.329 219.668L780.571 218.061L790.14 227.409L799.768 225.536L788.666 214.773ZM778.256 211.117L770.884 212.591L768.275 199.086L775.573 197.611C776.03 197.523 776.472 197.464 776.885 197.42L777.165 197.184C777.192 196.963 777.241 196.745 777.313 196.535C777.409 196.279 777.583 196.06 777.811 195.909C778.038 195.759 778.308 195.683 778.581 195.695C779.104 195.747 779.609 195.918 780.055 196.196C780.132 196.103 780.227 196.028 780.335 195.975C780.341 195.692 780.376 195.41 780.438 195.134C780.524 194.924 780.688 194.754 780.895 194.661C781.103 194.568 781.339 194.558 781.553 194.634C781.767 194.71 781.944 194.865 782.047 195.068C782.15 195.271 782.17 195.506 782.105 195.724C781.928 196.402 782.252 197.007 782.193 197.7C782.173 197.865 782.123 198.024 782.046 198.171C782.874 198.653 783.582 199.318 784.114 200.115C784.645 200.913 784.987 201.821 785.112 202.772C785.997 206.974 783.726 210.055 778.256 211.117Z" fill="white"/>
<path d="M831.085 182.735L830.628 182.853C830.519 182.89 830.415 182.94 830.318 183.001C830.272 183.027 830.232 183.062 830.2 183.104C830.069 183.26 829.895 183.373 829.699 183.428C829.584 183.449 829.466 183.446 829.353 183.421C829.239 183.395 829.131 183.348 829.035 183.281C828.936 183.221 828.852 183.139 828.788 183.042C828.724 182.945 828.683 182.835 828.667 182.721C828.621 182.491 828.669 182.252 828.8 182.057C828.8 182.057 828.888 181.983 828.918 181.939C825.143 180.736 821.123 180.517 817.24 181.305C805.003 183.679 797.705 193.941 799.931 205.441C802.157 216.941 812.773 223.738 824.996 221.364C837.218 218.99 844.546 208.788 842.305 197.228C841.754 194.082 840.445 191.118 838.489 188.593C836.534 186.067 833.993 184.057 831.085 182.735ZM823.536 213.697C820.249 214.335 816.844 213.64 814.07 211.767C811.295 209.894 809.378 206.995 808.741 203.708C808.103 200.422 808.798 197.017 810.671 194.242C812.544 191.467 815.443 189.55 818.73 188.913C820.385 188.589 822.087 188.589 823.742 188.913C823.742 188.707 823.875 188.5 823.949 188.323C824.022 188.123 824.166 187.956 824.353 187.853C824.54 187.75 824.758 187.718 824.966 187.763C825.13 187.792 825.281 187.871 825.397 187.99C825.514 188.109 825.59 188.262 825.615 188.426L826.131 188.294C826.249 187.925 826.367 187.571 826.47 187.203C826.573 186.834 826.588 186.775 826.632 186.569C826.664 186.467 826.688 186.364 826.706 186.259V186.156L826.794 185.625V185.433C826.706 184.844 827.325 184.136 827.959 184.446L829.714 185.286C829.93 185.372 830.106 185.537 830.204 185.748C830.303 185.959 830.317 186.2 830.244 186.421C830.141 186.641 830.052 186.868 829.979 187.099C829.979 187.173 829.979 187.262 829.905 187.335C829.905 187.335 829.905 187.335 829.905 187.439C829.876 187.792 829.876 188.147 829.905 188.5C829.937 189.338 829.888 190.178 829.758 191.007C829.799 191.102 829.82 191.205 829.82 191.309C829.82 191.413 829.799 191.516 829.758 191.611C829.727 191.712 829.672 191.803 829.596 191.876C831.523 193.784 832.816 196.24 833.296 198.909C833.699 200.525 833.762 202.208 833.481 203.849C833.2 205.491 832.581 207.057 831.664 208.447C830.746 209.837 829.55 211.021 828.151 211.925C826.752 212.829 825.18 213.432 823.536 213.697Z" fill="white"/>
<path d="M881.774 185.182C881.725 185.176 881.675 185.176 881.626 185.182C881.274 185.058 880.949 184.868 880.668 184.622C880.534 184.851 880.381 185.068 880.211 185.271C880.075 185.457 879.873 185.586 879.646 185.629C879.419 185.673 879.183 185.629 878.987 185.506C878.794 185.375 878.661 185.172 878.617 184.943C878.573 184.714 878.621 184.477 878.751 184.283C879.622 183.096 880.171 181.704 880.344 180.243C877.395 174.257 870.746 171.647 862.091 173.328L845.327 176.572L852.788 215.26L861.752 213.52L859.658 202.727L867.9 201.135L877.469 210.468L887.096 208.61L875.994 197.847C878.085 196.527 879.746 194.626 880.772 192.376C881.799 190.127 882.147 187.627 881.774 185.182ZM865.629 194.176L858.257 195.65L855.736 182.086L863.108 180.612C868.593 179.55 871.837 181.511 872.662 185.772C873.488 190.033 871.099 193.114 865.629 194.176Z" fill="white"/>
<path d="M931.622 259.89L929.381 260.318C929.205 260.33 929.029 260.29 928.876 260.203C928.722 260.116 928.598 259.986 928.518 259.829C928.437 259.672 928.405 259.495 928.425 259.319C928.445 259.144 928.516 258.979 928.629 258.843H928.718C928.084 259.123 927.45 259.404 926.786 259.654C926.732 260.636 926.732 261.621 926.786 262.603L941.25 337.413L887.376 347.852C887.391 347.959 887.391 348.069 887.376 348.176C887.353 348.41 887.241 348.625 887.062 348.777C886.882 348.928 886.651 349.004 886.417 348.987C885.548 348.825 884.663 348.663 883.778 348.545L812.448 362.374C812.435 362.5 812.395 362.621 812.33 362.728C812.06 363.181 811.76 363.615 811.43 364.026C811.472 364.289 811.442 364.56 811.342 364.807C810.79 366.462 810.074 368.057 809.204 369.569C808.922 369.968 808.501 370.246 808.024 370.351C807.714 370.415 807.392 370.39 807.096 370.277C806.758 371.006 806.51 371.773 806.358 372.562L920.653 350.447L920.756 350.314C921.422 349.685 922.212 349.202 923.075 348.895C923.938 348.588 924.855 348.464 925.769 348.53C926.419 347.769 927.191 347.121 928.054 346.613C928.443 346.358 928.889 346.204 929.353 346.165C929.816 346.127 930.282 346.205 930.708 346.392C931.274 346.727 931.706 347.248 931.932 347.867C933.057 347.729 934.189 347.65 935.323 347.631L951.541 344.475L935.691 262.75C934.122 262.143 932.725 261.161 931.622 259.89Z" fill="white"/>
<path d="M783.876 152.982L784.407 153.085L795.066 151.021C796.246 150.505 797.411 149.959 798.546 149.473C800.691 148.459 802.996 147.825 805.358 147.6C806.766 147.535 808.173 147.746 809.501 148.22L901.178 130.453L909.685 174.302C909.784 174.161 909.921 174.052 910.08 173.986C910.239 173.921 910.414 173.903 910.583 173.934C910.752 173.965 910.909 174.044 911.034 174.162C911.16 174.279 911.249 174.43 911.292 174.596C911.787 176.524 912.054 178.504 912.088 180.494C912.042 181.45 911.822 182.389 911.439 183.266L925.903 257.914C926.773 257.589 927.628 257.236 928.483 256.852C928.568 256.338 928.758 255.847 929.039 255.408C929.32 254.97 929.688 254.593 930.12 254.302C930.737 254.009 931.442 253.957 932.096 254.154C932.436 253.38 932.684 252.569 932.833 251.736C933.04 250.723 933.134 249.689 933.113 248.655L932.538 245.632C932.538 245.47 932.405 245.323 932.332 245.175C932.271 245.062 932.239 244.935 932.239 244.807C932.239 244.678 932.271 244.551 932.332 244.438L917.116 165.971C917.028 165.985 916.938 165.985 916.85 165.971C916.318 166.028 915.78 165.939 915.294 165.713C914.808 165.487 914.393 165.133 914.093 164.689C913.674 163.829 913.545 162.856 913.725 161.917C913.872 160.811 914.152 159.72 914.373 158.629C914.611 157.665 914.681 156.668 914.58 155.68C914.544 155.513 914.562 155.339 914.631 155.183C914.7 155.027 914.816 154.896 914.963 154.81L908.211 120L776.003 145.743C773.547 147.171 770.748 147.9 767.908 147.851C767.774 147.843 767.644 147.8 767.531 147.728C767.417 147.656 767.324 147.556 767.259 147.438L701.664 160.162C701.626 160.333 701.54 160.489 701.418 160.614C701.296 160.739 701.141 160.828 700.971 160.87L697.521 161.533C697.508 162.058 697.349 162.568 697.064 163.008C697.041 163.214 696.941 163.403 696.784 163.539C696.557 163.724 696.341 163.92 696.135 164.128C695.737 164.497 695.354 164.895 694.941 165.249C694.801 165.384 694.628 165.48 694.44 165.529C694.286 165.556 694.128 165.542 693.981 165.491C693.834 165.439 693.703 165.351 693.599 165.234C693.447 165.053 693.368 164.822 693.378 164.585C693.37 164.502 693.37 164.418 693.378 164.335C692.847 164.335 692.317 164.335 691.8 164.202C691.569 164.176 691.355 164.062 691.205 163.884C691.054 163.706 690.977 163.477 690.99 163.244C691.008 163.011 691.118 162.796 691.295 162.644C691.471 162.492 691.701 162.416 691.933 162.433C692.49 162.514 693.051 162.558 693.614 162.565H694.056C694.12 162.573 694.184 162.573 694.248 162.565C693.815 162.503 693.417 162.289 693.127 161.961C693.123 161.922 693.123 161.882 693.127 161.843L655.147 169.215C655.323 169.217 655.495 169.263 655.649 169.348C655.838 169.482 655.969 169.684 656.013 169.912C656.057 170.14 656.011 170.376 655.884 170.571C655.581 170.975 655.24 171.351 654.867 171.692L654.764 171.81C654.852 171.81 654.764 171.736 654.764 171.81C654.7 171.885 654.641 171.964 654.587 172.046C654.587 172.046 654.587 172.164 654.587 172.208C654.58 172.257 654.58 172.306 654.587 172.355C654.58 172.384 654.58 172.415 654.587 172.444C654.568 172.595 654.511 172.74 654.421 172.864C654.332 172.988 654.213 173.087 654.075 173.153C653.937 173.219 653.785 173.25 653.632 173.242C653.48 173.234 653.331 173.187 653.201 173.107C653.123 173.065 653.038 173.035 652.95 173.019C652.859 172.983 652.766 172.953 652.67 172.93C652.673 173.346 652.561 173.754 652.346 174.11C652.262 174.232 652.146 174.33 652.011 174.392C651.876 174.455 651.727 174.479 651.579 174.464C651.431 175.294 651.153 176.095 650.754 176.837C650.309 177.596 649.705 178.25 648.984 178.754C649.127 178.946 649.246 179.153 649.338 179.373L705.807 168.434V168.345C706.047 167.944 706.356 167.589 706.721 167.298C706.963 167.119 707.244 166.997 707.54 166.944C707.837 166.89 708.142 166.905 708.432 166.989C708.895 167.132 709.329 167.357 709.714 167.652L782.829 153.483C782.914 153.288 783.066 153.129 783.259 153.037C783.451 152.945 783.67 152.925 783.876 152.982Z" fill="white"/>
<path d="M685.548 387.011L672.279 318.673C672.162 318.806 672.009 318.901 671.838 318.945C671.667 318.99 671.487 318.982 671.321 318.924C671.1 318.847 670.919 318.686 670.817 318.476C670.715 318.266 670.7 318.024 670.775 317.803C670.996 317.155 671.33 316.551 671.763 316.019L654.38 226.215L654.218 225.934C653.864 225.205 653.611 224.432 653.466 223.634C653.161 223.612 652.856 223.612 652.552 223.634C652.418 223.657 652.281 223.649 652.151 223.611C652.021 223.573 651.901 223.506 651.8 223.416C651.7 223.325 651.621 223.212 651.57 223.087C651.518 222.961 651.496 222.826 651.505 222.691C651.487 220.99 651.925 219.315 652.773 217.84L645.725 181.511C645.607 181.318 645.504 181.115 645.416 180.907L645.062 180.243C644.917 180.24 644.776 180.196 644.654 180.118C644.532 180.041 644.433 179.931 644.369 179.801C644.266 179.592 644.251 179.35 644.325 179.129C644.4 178.908 644.559 178.726 644.767 178.621C645.135 178.478 645.471 178.263 645.755 177.987C645.956 177.759 646.12 177.5 646.241 177.221C646.473 176.597 646.598 175.939 646.61 175.275C646.388 174.975 646.228 174.634 646.138 174.272C646.071 173.777 646.117 173.273 646.271 172.798C646.302 172.673 646.369 172.561 646.462 172.473C646.462 171.913 646.374 171.353 646.344 170.792L635.065 172.975L667.251 339.02C667.412 338.934 667.599 338.91 667.776 338.954C667.953 338.997 668.107 339.105 668.21 339.256C669.043 340.158 669.502 341.344 669.492 342.573C669.448 342.815 669.379 343.052 669.286 343.281C669.435 343.388 669.544 343.542 669.597 343.718C669.65 343.893 669.645 344.082 669.581 344.254C669.149 345.099 669.01 346.063 669.183 346.996C669.368 347.874 669.619 348.736 669.935 349.576C670.491 350.987 670.563 352.543 670.141 353.999L678.545 397.39L680.934 396.919C682.276 396.476 683.645 396.116 685.032 395.842C685.011 395.74 685.013 395.635 685.035 395.533C685.058 395.432 685.102 395.336 685.165 395.253C685.515 394.848 685.89 394.464 686.286 394.103C686.249 393.953 686.249 393.796 686.286 393.646C686.533 392.625 687.108 391.714 687.922 391.051C688.661 390.506 689.573 390.249 690.488 390.328C691.369 390.439 692.215 390.744 692.964 391.221C693.713 391.697 694.348 392.334 694.822 393.085C697.24 392.496 699.85 391.611 702.194 392.805L793.842 375.113C793.87 374.873 793.919 374.636 793.989 374.405C794.364 373.21 795.063 372.143 796.009 371.323C796.151 371.202 796.327 371.13 796.513 371.116C796.699 371.103 796.884 371.15 797.041 371.25C797.112 371.134 797.212 371.038 797.331 370.972C797.45 370.905 797.583 370.871 797.719 370.871C797.855 370.871 797.989 370.905 798.108 370.972C798.227 371.038 798.326 371.134 798.398 371.25L798.766 371.692L798.928 371.839L799.209 372.031L799.518 372.179C799.238 371.326 799.238 370.406 799.518 369.554C799.691 369.075 799.961 368.636 800.311 368.265C800.661 367.895 801.084 367.601 801.553 367.402C801.466 367.284 801.409 367.146 801.39 367C801.37 366.855 801.388 366.707 801.441 366.57C801.494 366.433 801.58 366.312 801.693 366.217C801.805 366.123 801.94 366.059 802.084 366.03C802.276 366.007 802.47 366.046 802.638 366.141C802.807 366.237 802.939 366.384 803.017 366.561C803.095 366.738 803.114 366.936 803.07 367.124C803.027 367.313 802.924 367.483 802.777 367.608L802.88 367.726C802.982 367.935 802.998 368.177 802.923 368.398C802.849 368.618 802.69 368.801 802.482 368.905L802.143 369.068L801.951 369.171L801.848 369.245L801.612 369.451L801.523 369.554L801.376 369.775V369.864C801.342 369.941 801.313 370.02 801.287 370.1C801.581 369.713 801.923 369.366 802.305 369.068C802.561 368.891 802.838 368.747 803.13 368.64C803.853 367.048 804.531 365.426 805.209 363.834L685.548 387.011Z" fill="white"/>
<path d="M803.793 419.482H866.808C868.521 419.482 870.217 419.82 871.799 420.476C873.381 421.132 874.819 422.093 876.029 423.305C877.24 424.517 878.2 425.955 878.854 427.538C879.508 429.121 879.843 430.818 879.842 432.53V454.646C879.843 456.359 879.508 458.055 878.854 459.638C878.2 461.221 877.24 462.66 876.029 463.872C874.819 465.084 873.381 466.045 871.799 466.701C870.217 467.357 868.521 467.694 866.808 467.694H824.935L805.768 488.188L816.089 467.694H803.734C800.273 467.694 796.954 466.32 794.507 463.873C792.06 461.426 790.686 458.107 790.686 454.646V432.53C790.686 430.812 791.025 429.11 791.684 427.523C792.344 425.936 793.31 424.495 794.528 423.283C795.746 422.07 797.191 421.111 798.781 420.458C800.371 419.806 802.074 419.474 803.793 419.482Z" fill="white"/>
<path d="M806.873 442.365C806.818 440.876 807.208 439.405 807.994 438.14C808.78 436.874 809.926 435.873 811.285 435.264C812.644 434.654 814.155 434.465 815.622 434.72C817.09 434.974 818.448 435.662 819.522 436.694C820.596 437.726 821.337 439.055 821.651 440.511C821.964 441.967 821.836 443.484 821.282 444.866C820.727 446.249 819.772 447.434 818.54 448.271C817.307 449.107 815.853 449.556 814.363 449.56C813.392 449.608 812.421 449.457 811.51 449.116C810.599 448.776 809.767 448.252 809.066 447.579C808.364 446.905 807.808 446.095 807.431 445.198C807.054 444.301 806.864 443.337 806.873 442.365ZM819.804 442.365C819.815 441.279 819.504 440.215 818.909 439.307C818.313 438.399 817.462 437.689 816.461 437.266C815.461 436.844 814.358 436.729 813.292 436.936C812.227 437.143 811.247 437.662 810.477 438.427C809.707 439.193 809.183 440.17 808.97 441.235C808.757 442.299 808.867 443.403 809.283 444.406C809.7 445.408 810.406 446.264 811.31 446.864C812.215 447.464 813.278 447.781 814.363 447.776C815.081 447.798 815.796 447.673 816.464 447.41C817.133 447.146 817.74 446.749 818.249 446.242C818.759 445.736 819.159 445.131 819.427 444.464C819.694 443.797 819.822 443.083 819.804 442.365Z" fill="#407BFF"/>
<path d="M823.624 444.075C823.595 442.974 823.894 441.89 824.484 440.959C825.074 440.029 825.927 439.296 826.935 438.853C827.944 438.41 829.061 438.277 830.145 438.471C831.229 438.666 832.231 439.179 833.022 439.945C833.813 440.711 834.358 441.696 834.588 442.773C834.817 443.85 834.721 444.971 834.31 445.993C833.9 447.016 833.194 447.892 832.284 448.512C831.373 449.131 830.299 449.465 829.197 449.472C828.471 449.508 827.744 449.395 827.063 449.139C826.382 448.883 825.761 448.49 825.239 447.984C824.716 447.478 824.303 446.87 824.025 446.197C823.748 445.525 823.611 444.803 823.624 444.075ZM832.75 444.075C832.782 443.584 832.712 443.092 832.546 442.63C832.38 442.167 832.121 441.743 831.784 441.384C831.448 441.025 831.041 440.739 830.59 440.544C830.139 440.348 829.652 440.248 829.16 440.248C828.669 440.248 828.182 440.348 827.731 440.544C827.279 440.739 826.873 441.025 826.536 441.384C826.2 441.743 825.941 442.167 825.774 442.63C825.608 443.092 825.539 443.584 825.57 444.075C825.539 444.566 825.608 445.058 825.774 445.521C825.941 445.984 826.2 446.408 826.536 446.767C826.873 447.125 827.279 447.411 827.731 447.607C828.182 447.802 828.669 447.903 829.16 447.903C829.652 447.903 830.139 447.802 830.59 447.607C831.041 447.411 831.448 447.125 831.784 446.767C832.121 446.408 832.38 445.984 832.546 445.521C832.712 445.058 832.782 444.566 832.75 444.075Z" fill="#407BFF"/>
<path d="M848.362 444.075C848.402 444.795 848.291 445.516 848.035 446.191C847.78 446.866 847.386 447.48 846.879 447.994C846.372 448.507 845.764 448.909 845.092 449.174C844.421 449.438 843.702 449.56 842.981 449.53C842.268 449.552 841.561 449.406 840.915 449.103C840.27 448.801 839.705 448.351 839.265 447.79V453.304H837.334V438.752H839.177V440.448C839.619 439.863 840.196 439.394 840.858 439.081C841.52 438.768 842.249 438.62 842.981 438.649C843.699 438.619 844.416 438.74 845.085 439.003C845.754 439.265 846.362 439.665 846.868 440.175C847.374 440.686 847.769 441.296 848.026 441.968C848.283 442.639 848.398 443.357 848.362 444.075ZM846.416 444.075C846.382 443.375 846.143 442.701 845.729 442.136C845.316 441.571 844.746 441.139 844.09 440.895C843.434 440.65 842.72 440.603 842.038 440.759C841.355 440.916 840.733 441.269 840.249 441.775C839.765 442.281 839.44 442.917 839.314 443.606C839.188 444.295 839.266 445.006 839.539 445.65C839.813 446.295 840.269 446.845 840.852 447.234C841.435 447.622 842.118 447.831 842.819 447.834C843.311 447.85 843.8 447.762 844.256 447.577C844.712 447.392 845.124 447.113 845.466 446.759C845.808 446.405 846.071 445.983 846.24 445.52C846.409 445.058 846.479 444.566 846.446 444.075H846.416Z" fill="#407BFF"/>
<path d="M849.72 448.277L850.516 446.803C851.635 447.515 852.934 447.894 854.261 447.894C856.045 447.894 856.782 447.363 856.782 446.419C856.782 444.031 850.059 446.11 850.059 441.863C850.059 439.961 851.769 438.664 854.482 438.664C855.837 438.643 857.175 438.979 858.36 439.637L857.534 441.111C856.616 440.538 855.55 440.246 854.467 440.271C852.772 440.271 851.946 440.89 851.946 441.745C851.946 444.252 858.699 442.203 858.699 446.346C858.699 448.262 856.929 449.501 854.099 449.501C852.549 449.548 851.021 449.121 849.72 448.277Z" fill="#407BFF"/>
<path d="M860.688 448.234C860.688 448.062 860.723 447.891 860.79 447.732C860.857 447.574 860.956 447.43 861.08 447.311C861.204 447.191 861.35 447.097 861.511 447.036C861.672 446.974 861.843 446.945 862.015 446.951C862.185 446.947 862.354 446.977 862.511 447.04C862.668 447.103 862.812 447.198 862.931 447.318C863.051 447.438 863.146 447.581 863.209 447.738C863.272 447.896 863.302 448.064 863.298 448.234C863.3 448.403 863.268 448.572 863.205 448.729C863.141 448.886 863.047 449.03 862.928 449.15C862.808 449.271 862.666 449.367 862.51 449.432C862.353 449.498 862.185 449.531 862.015 449.531C861.843 449.535 861.671 449.504 861.51 449.441C861.349 449.378 861.202 449.283 861.079 449.162C860.955 449.041 860.857 448.897 860.79 448.737C860.723 448.578 860.688 448.407 860.688 448.234ZM860.865 435.348H863.106L862.723 444.961H861.249L860.865 435.348Z" fill="#407BFF"/>
<path d="M1171.25 189.647C1171.25 194.454 1144.96 198.582 1107.31 200.395L1104.28 200.543L1100.22 200.705C1094.57 200.926 1088.7 201.088 1082.66 201.221H1079.94H1078.47C1073.82 201.295 1069.08 201.324 1064.26 201.324C1055.53 201.324 1047.05 201.206 1038.93 201L1033.03 200.808C1018.21 200.322 1004.76 199.481 993.441 198.39C971.222 196.238 957.2 193.097 957.2 189.544C957.2 184.251 989.047 179.798 1032.85 178.324L1036.29 178.206C1039.34 178.118 1042.44 178.044 1045.59 177.985C1049.38 177.911 1053.24 177.867 1057.15 177.837H1064.27C1075.3 177.837 1085.94 178.014 1095.95 178.368L1100.7 178.53L1106.88 178.796L1108.49 178.884L1112.6 179.091C1147.29 181.125 1171.25 185.062 1171.25 189.647Z" fill="#263238"/>
<path opacity="0.4" d="M1171.25 189.648C1171.25 194.455 1144.96 198.583 1107.31 200.397L1104.28 200.544L1100.22 200.706C1094.57 200.927 1088.7 201.09 1082.66 201.222H1079.94H1078.47C1073.82 201.296 1069.08 201.326 1064.26 201.326C1055.53 201.326 1047.05 201.208 1038.93 201.001L1033.03 200.81C1018.21 200.323 1004.76 199.483 993.441 198.392C971.222 196.239 957.2 193.098 957.2 189.545C957.2 187.982 959.987 186.479 965.044 185.122C974.384 187.311 983.877 188.789 993.441 189.545C1004.76 190.636 1018.21 191.477 1033.03 191.963L1038.93 192.155C1047.05 192.361 1055.53 192.479 1064.26 192.479C1069.08 192.479 1073.82 192.479 1078.47 192.376H1079.94H1082.66C1088.7 192.243 1094.57 192.081 1100.22 191.86L1104.28 191.698L1107.31 191.55C1132.71 190.327 1152.92 188.056 1163.41 185.225C1168.39 186.596 1171.25 188.071 1171.25 189.648Z" fill="#E8F9FF"/>
<path d="M1056.99 177.941C1056.88 179.698 1056.22 181.375 1055.1 182.733C1053.88 184.208 1052.83 185.328 1051.64 186.552C1050.93 187.274 1050.16 188.026 1049.5 188.675C1049.03 189.161 1048.54 189.619 1048.03 190.061C1045.53 192.367 1042.89 194.514 1040.12 196.489L1039.64 196.828L1038.35 197.683C1036.59 198.864 1034.74 199.928 1032.84 200.868C1032.13 201.222 1031.36 201.561 1030.66 201.885C1028.89 202.629 1027.07 203.24 1025.22 203.714C1023.57 204.156 1021.99 204.539 1020.42 204.864C1018.23 205.35 1016 205.793 1013.89 206.191C1009.87 206.972 1005.86 207.665 1001.82 208.255C998.383 208.771 994.948 209.257 991.497 209.729C988.726 210.068 985.954 210.363 983.152 210.599C982.844 210.636 982.532 210.636 982.224 210.599C981.29 210.472 980.428 210.03 979.779 209.346C979.13 208.663 978.734 207.778 978.656 206.839C978.641 206.653 978.641 206.466 978.656 206.279C978.693 205.463 978.972 204.677 979.458 204.021C979.944 203.364 980.614 202.867 981.383 202.593L981.737 202.475C985.556 201.104 989.389 199.807 993.237 198.553L999.061 196.666C1004.96 194.749 1010.86 192.951 1016.59 191.049C1018.07 190.577 1019.44 190.09 1020.75 189.574C1021.88 189.2 1022.97 188.706 1023.99 188.1C1024.66 187.717 1025.32 187.289 1026 186.832C1027.48 185.833 1028.92 184.755 1030.29 183.603C1032.23 181.996 1034.18 180.227 1036.08 178.384C1039.14 178.295 1042.24 178.222 1045.39 178.163C1049.22 178.015 1053.08 177.971 1056.99 177.941Z" fill="#FFB573"/>
<path d="M1057.17 183.898C1057.06 184.207 1056.95 184.502 1056.83 184.797C1056.71 185.092 1056.58 185.387 1056.43 185.682C1056.3 185.971 1056.15 186.252 1055.99 186.522L1055.5 187.363V187.436C1055.17 187.957 1054.81 188.449 1054.44 188.911C1054.04 189.427 1053.63 189.928 1053.19 190.385L1052.77 190.842C1052.13 191.528 1051.45 192.178 1050.74 192.788C1050.5 193.009 1050.25 193.216 1050 193.407C1049.92 193.495 1049.82 193.574 1049.72 193.643C1047.51 195.407 1045.14 196.962 1042.64 198.288L1041.74 198.745L1040.86 199.187L1040.52 199.335L1039.44 198.391L1038.53 197.565L1036.47 195.737L1026.15 186.64L1025.36 185.947C1025.36 185.947 1028.52 182.423 1032.74 178.31L1036.17 178.192C1039.23 178.103 1042.33 178.03 1045.47 177.971C1049.26 177.897 1053.13 177.853 1057.03 177.823H1057.89C1058.1 179.877 1057.85 181.951 1057.17 183.898Z" fill="#407BFF"/>
<path opacity="0.7" d="M1057.18 183.898C1057.08 184.203 1056.96 184.504 1056.83 184.797C1056.71 185.092 1056.58 185.387 1056.43 185.682C1056.3 185.971 1056.15 186.252 1055.99 186.522L1055.5 187.363V187.436C1055.17 187.957 1054.81 188.449 1054.44 188.911C1054.04 189.427 1053.63 189.928 1053.19 190.385L1052.77 190.842C1052.13 191.528 1051.45 192.178 1050.74 192.788C1050.5 193.009 1050.25 193.216 1050 193.407C1049.92 193.495 1049.82 193.574 1049.72 193.643C1047.51 195.407 1045.14 196.962 1042.64 198.288L1041.74 198.745L1040.86 199.187L1040.52 199.335L1039.44 198.391L1038.53 197.565L1036.47 195.737L1026.15 186.64L1025.36 185.947C1025.36 185.947 1028.52 182.423 1032.74 178.31L1036.17 178.192C1039.23 178.103 1042.33 178.03 1045.47 177.971C1049.26 177.897 1053.13 177.853 1057.03 177.823H1057.9C1058.12 179.877 1057.87 181.951 1057.18 183.898Z" fill="#E8F9FF"/>
<path opacity="0.1" d="M1049.62 193.746C1046.78 196.015 1043.67 197.931 1040.37 199.452L1036.32 195.87C1038.45 189.544 1042.28 183.931 1047.4 179.651C1049.25 183.072 1049.84 190.223 1049.62 193.746Z" fill="black"/>
<path d="M982.945 202.549L969.263 200.455L969.366 212.575C969.366 212.575 978.743 215.391 983.712 209.021L982.945 202.549Z" fill="#EBB376"/>
<path d="M959.931 203.728L962.186 212.737L969.352 212.575L969.249 200.455L959.931 203.728Z" fill="#EBB376"/>
<path d="M1106.72 178.87C1106.6 179.18 1106.47 179.489 1106.35 179.814C1106 180.713 1105.66 181.627 1105.33 182.541C1105.13 183.102 1104.94 183.662 1104.75 184.237C1104.55 184.812 1104.35 185.387 1104.17 185.962C1103.62 187.672 1103.09 189.397 1102.58 191.152C1102.56 191.247 1102.54 191.341 1102.5 191.432C1101.94 193.378 1101.44 195.369 1100.96 197.329V197.565C1100.71 198.597 1100.44 199.63 1100.2 200.676C1100.09 201.148 1099.98 201.605 1099.88 202.077C1099.48 203.891 1099.1 205.719 1098.74 207.532C1098.61 208.21 1098.48 208.889 1098.36 209.552C1098.24 210.216 1098.08 211.027 1097.96 211.661C1097.96 211.808 1097.96 211.955 1097.89 212.103C1097.82 212.486 1097.74 212.869 1097.68 213.253C1097.49 214.329 1097.31 215.391 1097.14 216.437C1097.14 216.6 1097.14 216.747 1097.06 216.909L1096.89 218.015C1096.53 220.168 1096.22 222.276 1095.94 224.325C1095.94 224.443 1095.94 224.561 1095.94 224.679C1095.63 226.935 1095.37 229.102 1095.13 231.211C1095.03 232.081 1094.93 232.936 1094.84 233.776C1094.7 234.956 1094.59 236.091 1094.48 237.197C1094.39 238.008 1094.32 238.804 1094.25 239.571C1094.17 240.337 1094.11 241.045 1094.06 241.679C1094 242.313 1093.94 243.035 1093.88 243.669C1093.73 245.468 1093.61 247.09 1093.51 248.491C1093.51 249.11 1093.44 249.67 1093.39 250.201C1093.27 252.162 1093.22 253.533 1093.19 254.152C1093.19 254.403 1093.19 254.536 1093.19 254.536L1067.05 252.132H1066.66L1062.24 251.72L1055.59 251.1L1047.41 250.422L1045.47 250.245L1035.7 249.346C1035.7 248.417 1035.61 247.518 1035.6 246.603C1035.6 246.353 1035.6 246.102 1035.6 245.851C1035.32 237.801 1035.46 230.415 1035.89 223.736C1036.13 220.236 1036.43 216.909 1036.81 213.754C1037.34 209.213 1038 205.041 1038.75 201.192C1038.91 200.322 1039.09 199.467 1039.27 198.642C1039.39 198.067 1039.5 197.521 1039.64 196.976C1040.63 192.551 1041.85 188.18 1043.29 183.883C1044 181.819 1044.77 179.947 1045.4 178.251C1049.19 178.177 1053.05 178.133 1056.96 178.104H1064.08C1075.11 178.104 1085.75 178.28 1095.77 178.634L1100.51 178.796L1106.72 178.87Z" fill="#407BFF"/>
<path opacity="0.7" d="M1106.72 178.87C1106.6 179.18 1106.47 179.489 1106.35 179.814C1106 180.713 1105.66 181.627 1105.33 182.541C1105.13 183.102 1104.94 183.662 1104.75 184.237C1104.55 184.812 1104.35 185.387 1104.17 185.962V186.065C1103.62 187.746 1103.12 189.427 1102.62 191.152C1102.6 191.247 1102.58 191.341 1102.55 191.432C1101.84 193.938 1101.18 196.489 1100.56 199.055C1100.43 199.6 1100.31 200.16 1100.19 200.706C1100.07 201.251 1099.97 201.635 1099.86 202.106C1099.47 203.92 1099.08 205.748 1098.73 207.562C1098.58 208.24 1098.45 208.918 1098.33 209.596C1098.2 210.289 1098.07 210.997 1097.95 211.69C1097.95 211.837 1097.95 212 1097.86 212.147C1097.79 212.53 1097.71 212.914 1097.65 213.297C1097.46 214.373 1097.28 215.435 1097.11 216.482C1097.11 216.644 1097.11 216.791 1097.03 216.954L1096.86 218.059C1096.52 220.212 1096.19 222.32 1095.91 224.37C1095.91 224.488 1095.91 224.606 1095.91 224.724C1095.6 226.979 1095.34 229.147 1095.1 231.255C1095 232.125 1094.9 232.98 1094.81 233.82C1094.68 235 1094.56 236.135 1094.45 237.241C1094.37 238.052 1094.29 238.848 1094.22 239.615C1094.14 240.381 1094.09 241.089 1094.03 241.723C1093.97 242.357 1093.91 243.08 1093.85 243.714C1093.7 245.512 1093.58 247.134 1093.48 248.535C1093.48 249.154 1093.41 249.714 1093.36 250.245C1093.24 252.206 1093.19 253.577 1093.16 254.196C1093.16 254.447 1093.16 254.58 1093.16 254.58L1067.02 252.177H1066.63L1062.21 251.764L1055.56 251.145L1047.41 250.422L1045.47 250.245L1035.7 249.346C1035.7 248.417 1035.61 247.518 1035.6 246.603C1035.6 246.353 1035.6 246.102 1035.6 245.851C1035.32 237.801 1035.46 230.415 1035.89 223.736C1036.13 220.236 1036.43 216.909 1036.81 213.754C1037.34 209.213 1038 205.041 1038.75 201.192C1038.91 200.322 1039.09 199.467 1039.27 198.642C1039.39 198.067 1039.5 197.521 1039.64 196.976C1040.63 192.551 1041.85 188.18 1043.29 183.883C1044 181.819 1044.77 179.947 1045.4 178.251C1049.19 178.177 1053.05 178.133 1056.96 178.104H1064.08C1075.11 178.104 1085.75 178.28 1095.77 178.634L1100.51 178.796L1106.72 178.87Z" fill="#E8F9FF"/>
<path d="M965.578 374.566C965.578 374.566 984.008 366.899 984.642 359.306C984.649 359.124 984.693 358.946 984.773 358.782C984.852 358.618 984.965 358.473 985.104 358.355C985.242 358.237 985.404 358.149 985.578 358.097C985.753 358.045 985.936 358.03 986.117 358.053L1000.18 358.908C1000.51 358.936 1000.83 359.051 1001.1 359.243C1001.38 359.435 1001.59 359.696 1001.73 359.999L1007.36 373.018L1003.46 373.548L1001.82 371.764L1000.34 373.976C979.172 376.925 970.002 377.883 965.637 377.146C964.841 375.362 965.578 374.566 965.578 374.566Z" fill="black"/>
<path d="M1051.96 298.002C1051.15 297.825 1050.71 297.692 1050.71 297.692L984.361 289.406L1004.09 359.66L984.007 361.577C984.007 361.577 938.183 273.188 956.908 260.434C975.632 247.681 1033.69 261.761 1033.69 261.761L1035.98 244.26L1093.7 248.565C1102.97 306.258 1059.92 299.668 1051.96 298.002Z" fill="#263238"/>
<path d="M1032.84 500.965C1032.84 500.965 1052.71 499.063 1055.53 491.927C1055.59 491.76 1055.68 491.607 1055.8 491.476C1055.92 491.346 1056.06 491.241 1056.23 491.168C1056.39 491.095 1056.56 491.056 1056.74 491.052C1056.92 491.048 1057.09 491.079 1057.26 491.145L1070.52 496.07C1070.83 496.191 1071.1 496.391 1071.31 496.65C1071.51 496.909 1071.64 497.217 1071.69 497.544L1073.28 511.639L1069.39 511.005L1068.33 508.823L1066.32 510.519C1045.24 507.113 1036.16 505.417 1032.21 503.427C1031.84 501.481 1032.84 500.965 1032.84 500.965Z" fill="black"/>
<path d="M1094.28 269.471C1094.19 269.825 1091.78 280.883 1088.64 296.733C1088.47 297.632 1088.29 298.576 1088.1 299.505C1086.62 307.039 1085 315.516 1083.41 324.348C1081.46 335.096 1079.53 346.464 1077.91 357.182C1075.71 370.61 1074.28 384.152 1073.62 397.743C1072.85 431.904 1071.42 499.313 1071.42 499.313L1053.04 496.364C1053.04 496.364 1042.88 424.473 1043 389.663C1043.08 367.547 1048.57 321.974 1052.31 293.636C1054.2 279.099 1055.65 269.073 1055.65 269.073L1076.48 269.265L1094.28 269.471Z" fill="#263238"/>
<path d="M1092.83 254.182L1094.05 254.27L1094 250.29L1092.92 250.216L1092.83 254.182Z" fill="#263238"/>
<path d="M1047.45 250.659L1072.07 252.576L1072.19 248.609L1047.66 246.708L1047.45 250.659Z" fill="#263238"/>
<path d="M1045.75 246.559L1035.34 245.763L1034.98 249.685L1045.52 250.511L1045.75 246.559Z" fill="#263238"/>
<path d="M1091.02 250.068L1074.08 248.756L1074 252.722L1090.89 254.034L1091.02 250.068Z" fill="#263238"/>
<g opacity="0.2">
<path d="M1092.83 254.182L1094.05 254.27L1093.99 250.29L1092.92 250.216L1092.83 254.182Z" fill="#E8F9FF"/>
<path d="M1047.45 250.658L1072.07 252.575L1072.19 248.609L1047.65 246.707L1047.45 250.658Z" fill="#E8F9FF"/>
<path d="M1045.75 246.559L1035.34 245.763L1034.97 249.685L1045.52 250.511L1045.75 246.559Z" fill="#E8F9FF"/>
<path d="M1091.01 250.068L1074.07 248.756L1074 252.722L1090.88 254.034L1091.01 250.068Z" fill="#E8F9FF"/>
</g>
<path d="M1055.15 248.049L1055.06 250.452C1055.05 250.635 1055.11 250.814 1055.23 250.952C1055.36 251.089 1055.52 251.174 1055.71 251.189L1061.86 251.764C1061.95 251.775 1062.05 251.764 1062.15 251.734C1062.24 251.704 1062.33 251.655 1062.4 251.59C1062.47 251.525 1062.53 251.445 1062.57 251.356C1062.61 251.266 1062.64 251.17 1062.64 251.071V248.565C1062.64 248.381 1062.57 248.202 1062.45 248.065C1062.33 247.927 1062.16 247.843 1061.97 247.828L1055.87 247.356C1055.68 247.359 1055.51 247.433 1055.37 247.561C1055.24 247.689 1055.16 247.864 1055.15 248.049Z" stroke="#E8F9FF" stroke-width="1.0763" stroke-miterlimit="10"/>
<path d="M1059.95 249.553L1061.83 249.744" stroke="#E8F9FF" stroke-width="1.0763" stroke-linecap="round" stroke-linejoin="round"/>
<path opacity="0.1" d="M1102.5 191.447C1101.79 193.953 1101.13 196.504 1100.51 199.069C1100.28 200.087 1100.04 201.104 1099.82 202.121C1098.71 207.119 1097.77 212.132 1096.99 216.968L1096.81 218.074C1086.68 221.332 1076.17 219.091 1076.51 209.331C1077 196.253 1088.14 190.164 1088.14 190.164C1093.11 187.436 1098.32 188.498 1102.5 191.447Z" fill="black"/>
<path d="M1003.41 565.94H1017.05L972.699 215.479H959.061L1003.41 565.94Z" fill="#263238"/>
<path opacity="0.4" d="M1003.41 565.94H1017.05L972.699 215.479H959.061L1003.41 565.94Z" fill="#E8F9FF"/>
<path d="M974.896 267.437H1018.26C1018.8 267.408 1019.32 267.226 1019.76 266.913C1020.2 266.6 1020.54 266.168 1020.75 265.668L1023.51 259.77H969.647L972.405 265.668C972.61 266.168 972.953 266.6 973.394 266.913C973.835 267.226 974.356 267.408 974.896 267.437Z" fill="#263238"/>
<path opacity="0.4" d="M974.896 267.437H1018.26C1018.8 267.408 1019.32 267.226 1019.76 266.913C1020.2 266.6 1020.54 266.168 1020.75 265.668L1023.51 259.77H969.647L972.405 265.668C972.61 266.168 972.953 266.6 973.394 266.913C973.835 267.226 974.356 267.408 974.896 267.437Z" fill="#E8F9FF"/>
<path d="M970.37 262.601H1022.77C1024.33 262.601 1025.59 261.34 1025.59 259.785V259.151C1025.59 257.595 1024.33 256.334 1022.77 256.334H970.37C968.815 256.334 967.554 257.595 967.554 259.151V259.785C967.554 261.34 968.815 262.601 970.37 262.601Z" fill="#263238"/>
<path opacity="0.1" d="M970.37 262.601H1022.77C1024.33 262.601 1025.59 261.34 1025.59 259.785V259.151C1025.59 257.595 1024.33 256.334 1022.77 256.334H970.37C968.815 256.334 967.554 257.595 967.554 259.151V259.785C967.554 261.34 968.815 262.601 970.37 262.601Z" fill="#E8F9FF"/>
<path d="M982.814 317.537H1026.16C1026.7 317.51 1027.23 317.328 1027.67 317.011C1028.11 316.695 1028.45 316.258 1028.65 315.753L1031.41 309.929H977.565L980.308 315.753C980.511 316.259 980.855 316.697 981.299 317.013C981.743 317.329 982.269 317.511 982.814 317.537Z" fill="#263238"/>
<path opacity="0.4" d="M982.814 317.537H1026.16C1026.7 317.51 1027.23 317.328 1027.67 317.011C1028.11 316.695 1028.45 316.258 1028.65 315.753L1031.41 309.929H977.565L980.308 315.753C980.511 316.259 980.855 316.697 981.299 317.013C981.743 317.329 982.269 317.511 982.814 317.537Z" fill="#E8F9FF"/>
<path d="M978.284 312.701H1030.68C1032.24 312.701 1033.5 311.44 1033.5 309.885V309.251C1033.5 307.695 1032.24 306.435 1030.68 306.435H978.284C976.729 306.435 975.468 307.695 975.468 309.251V309.885C975.468 311.44 976.729 312.701 978.284 312.701Z" fill="#263238"/>
<path opacity="0.1" d="M978.284 312.701H1030.68C1032.24 312.701 1033.5 311.44 1033.5 309.885V309.251C1033.5 307.695 1032.24 306.435 1030.68 306.435H978.284C976.729 306.435 975.468 307.695 975.468 309.251V309.885C975.468 311.44 976.729 312.701 978.284 312.701Z" fill="#E8F9FF"/>
<path d="M990.716 383.839H1034.14C1034.68 383.816 1035.21 383.637 1035.65 383.323C1036.1 383.009 1036.44 382.574 1036.64 382.069L1039.39 376.172H985.482L988.24 382.069C988.439 382.571 988.779 383.004 989.218 383.318C989.658 383.631 990.177 383.812 990.716 383.839Z" fill="#263238"/>
<path opacity="0.4" d="M990.716 383.839H1034.14C1034.68 383.816 1035.21 383.637 1035.65 383.323C1036.1 383.009 1036.44 382.574 1036.64 382.069L1039.39 376.172H985.482L988.24 382.069C988.439 382.571 988.779 383.004 989.218 383.318C989.658 383.631 990.177 383.812 990.716 383.839Z" fill="#E8F9FF"/>
<path d="M986.189 379.018H1038.59C1040.14 379.018 1041.4 377.757 1041.4 376.202V375.568C1041.4 374.013 1040.14 372.752 1038.59 372.752H986.189C984.633 372.752 983.373 374.013 983.373 375.568V376.202C983.373 377.757 984.633 379.018 986.189 379.018Z" fill="#263238"/>
<path opacity="0.1" d="M986.189 379.018H1038.59C1040.14 379.018 1041.4 377.757 1041.4 376.202V375.568C1041.4 374.013 1040.14 372.752 1038.59 372.752H986.189C984.633 372.752 983.373 374.013 983.373 375.568V376.202C983.373 377.757 984.633 379.018 986.189 379.018Z" fill="#E8F9FF"/>
<path d="M998.618 450.158H1041.98C1042.52 450.132 1043.04 449.952 1043.48 449.638C1043.93 449.324 1044.27 448.891 1044.47 448.388L1047.23 442.491H993.369L996.126 448.388C996.329 448.891 996.671 449.324 997.113 449.638C997.554 449.952 998.077 450.132 998.618 450.158Z" fill="#263238"/>
<path opacity="0.4" d="M998.618 450.158H1041.98C1042.52 450.132 1043.04 449.952 1043.48 449.638C1043.93 449.324 1044.27 448.891 1044.47 448.388L1047.23 442.491H993.369L996.126 448.388C996.329 448.891 996.671 449.324 997.113 449.638C997.554 449.952 998.077 450.132 998.618 450.158Z" fill="#E8F9FF"/>
<path d="M994.092 445.336H1046.49C1048.05 445.336 1049.31 444.075 1049.31 442.52V441.886C1049.31 440.331 1048.05 439.07 1046.49 439.07H994.092C992.537 439.07 991.276 440.331 991.276 441.886V442.52C991.276 444.075 992.537 445.336 994.092 445.336Z" fill="#263238"/>
<path opacity="0.1" d="M994.092 445.336H1046.49C1048.05 445.336 1049.31 444.075 1049.31 442.52V441.886C1049.31 440.331 1048.05 439.07 1046.49 439.07H994.092C992.537 439.07 991.276 440.331 991.276 441.886V442.52C991.276 444.075 992.537 445.336 994.092 445.336Z" fill="#E8F9FF"/>
<path d="M1006.54 516.475H1049.88C1050.42 516.452 1050.95 516.272 1051.39 515.958C1051.83 515.644 1052.17 515.21 1052.37 514.706L1055.13 508.809H1001.27L1004.03 514.706C1004.23 515.211 1004.58 515.646 1005.02 515.96C1005.47 516.274 1005.99 516.453 1006.54 516.475Z" fill="#263238"/>
<path opacity="0.4" d="M1006.54 516.475H1049.88C1050.42 516.452 1050.95 516.272 1051.39 515.958C1051.83 515.644 1052.17 515.21 1052.37 514.706L1055.13 508.809H1001.27L1004.03 514.706C1004.23 515.211 1004.58 515.646 1005.02 515.96C1005.47 516.274 1005.99 516.453 1006.54 516.475Z" fill="#E8F9FF"/>
<path d="M1001.99 511.639H1054.39C1055.95 511.639 1057.21 510.378 1057.21 508.823V508.189C1057.21 506.634 1055.95 505.373 1054.39 505.373H1001.99C1000.44 505.373 999.177 506.634 999.177 508.189V508.823C999.177 510.378 1000.44 511.639 1001.99 511.639Z" fill="#263238"/>
<path opacity="0.1" d="M1001.99 511.639H1054.39C1055.95 511.639 1057.21 510.378 1057.21 508.823V508.189C1057.21 506.634 1055.95 505.373 1054.39 505.373H1001.99C1000.44 505.373 999.177 506.634 999.177 508.189V508.823C999.177 510.378 1000.44 511.639 1001.99 511.639Z" fill="#E8F9FF"/>
<path d="M1056.06 565.94H1069.7L1025.35 215.479H1011.71L1056.06 565.94Z" fill="#263238"/>
<path opacity="0.7" d="M1056.06 565.94H1069.7L1025.35 215.479H1011.71L1056.06 565.94Z" fill="#E8F9FF"/>
<path d="M912.882 565.94H899.244L943.579 215.479H957.217L912.882 565.94Z" fill="#263238"/>
<path opacity="0.4" d="M912.882 565.94H899.244L943.579 215.479H957.217L912.882 565.94Z" fill="#E8F9FF"/>
<path d="M994.032 267.437H950.685C950.143 267.41 949.619 267.23 949.175 266.917C948.731 266.603 948.386 266.17 948.179 265.668L945.437 259.77H999.281L996.524 265.668C996.321 266.17 995.979 266.604 995.537 266.917C995.096 267.231 994.573 267.411 994.032 267.437Z" fill="#263238"/>
<path opacity="0.5" d="M994.032 267.437H950.685C950.143 267.41 949.619 267.23 949.175 266.917C948.731 266.603 948.386 266.17 948.179 265.668L945.437 259.77H999.281L996.524 265.668C996.321 266.17 995.979 266.604 995.537 266.917C995.096 267.231 994.573 267.411 994.032 267.437Z" fill="#E8F9FF"/>
<path d="M998.557 256.334H946.158C944.603 256.334 943.342 257.595 943.342 259.151V259.785C943.342 261.34 944.603 262.601 946.158 262.601H998.557C1000.11 262.601 1001.37 261.34 1001.37 259.785V259.151C1001.37 257.595 1000.11 256.334 998.557 256.334Z" fill="#263238"/>
<path opacity="0.2" d="M998.557 256.334H946.158C944.603 256.334 943.342 257.595 943.342 259.151V259.785C943.342 261.34 944.603 262.601 946.158 262.601H998.557C1000.11 262.601 1001.37 261.34 1001.37 259.785V259.151C1001.37 257.595 1000.11 256.334 998.557 256.334Z" fill="#E8F9FF"/>
<path d="M986.129 317.537H942.723C942.181 317.508 941.658 317.325 941.217 317.009C940.775 316.693 940.434 316.257 940.232 315.753L937.475 309.929H991.378L988.621 315.753C988.419 316.257 988.077 316.693 987.636 317.009C987.194 317.325 986.672 317.508 986.129 317.537Z" fill="#263238"/>
<path opacity="0.5" d="M986.129 317.537H942.723C942.181 317.508 941.658 317.325 941.217 317.009C940.775 316.693 940.434 316.257 940.232 315.753L937.475 309.929H991.378L988.621 315.753C988.419 316.257 988.077 316.693 987.636 317.009C987.194 317.325 986.672 317.508 986.129 317.537Z" fill="#E8F9FF"/>
<path d="M990.656 306.434H938.257C936.701 306.434 935.44 307.695 935.44 309.25V309.884C935.44 311.439 936.701 312.7 938.257 312.7H990.656C992.211 312.7 993.472 311.439 993.472 309.884V309.25C993.472 307.695 992.211 306.434 990.656 306.434Z" fill="#263238"/>
<path opacity="0.2" d="M990.656 306.434H938.257C936.701 306.434 935.44 307.695 935.44 309.25V309.884C935.44 311.439 936.701 312.7 938.257 312.7H990.656C992.211 312.7 993.472 311.439 993.472 309.884V309.25C993.472 307.695 992.211 306.434 990.656 306.434Z" fill="#E8F9FF"/>
<path d="M978.212 383.839H934.865C934.324 383.815 933.8 383.635 933.358 383.321C932.916 383.008 932.574 382.573 932.373 382.069L929.616 376.172H983.461L980.718 382.069C980.515 382.574 980.17 383.009 979.726 383.323C979.281 383.637 978.756 383.816 978.212 383.839Z" fill="#263238"/>
<path opacity="0.5" d="M978.212 383.839H934.865C934.324 383.815 933.8 383.635 933.358 383.321C932.916 383.008 932.574 382.573 932.373 382.069L929.616 376.172H983.461L980.718 382.069C980.515 382.574 980.17 383.009 979.726 383.323C979.281 383.637 978.756 383.816 978.212 383.839Z" fill="#E8F9FF"/>
<path d="M982.739 372.752H930.34C928.784 372.752 927.523 374.013 927.523 375.568V376.202C927.523 377.757 928.784 379.018 930.34 379.018H982.739C984.294 379.018 985.555 377.757 985.555 376.202V375.568C985.555 374.013 984.294 372.752 982.739 372.752Z" fill="#263238"/>
<path opacity="0.2" d="M982.739 372.752H930.34C928.784 372.752 927.523 374.013 927.523 375.568V376.202C927.523 377.757 928.784 379.018 930.34 379.018H982.739C984.294 379.018 985.555 377.757 985.555 376.202V375.568C985.555 374.013 984.294 372.752 982.739 372.752Z" fill="#E8F9FF"/>
<path d="M970.31 450.158H926.963C926.42 450.133 925.895 449.953 925.451 449.64C925.006 449.326 924.661 448.892 924.456 448.388L921.714 442.491H975.558L972.801 448.388C972.6 448.892 972.258 449.326 971.816 449.64C971.374 449.954 970.851 450.134 970.31 450.158Z" fill="#263238"/>
<path opacity="0.5" d="M970.31 450.158H926.963C926.42 450.133 925.895 449.953 925.451 449.64C925.006 449.326 924.661 448.892 924.456 448.388L921.714 442.491H975.558L972.801 448.388C972.6 448.892 972.258 449.326 971.816 449.64C971.374 449.954 970.851 450.134 970.31 450.158Z" fill="#E8F9FF"/>
<path d="M974.836 439.07H922.436C920.881 439.07 919.62 440.331 919.62 441.886V442.52C919.62 444.075 920.881 445.336 922.436 445.336H974.836C976.391 445.336 977.652 444.075 977.652 442.52V441.886C977.652 440.331 976.391 439.07 974.836 439.07Z" fill="#263238"/>
<path opacity="0.2" d="M974.836 439.07H922.436C920.881 439.07 919.62 440.331 919.62 441.886V442.52C919.62 444.075 920.881 445.336 922.436 445.336H974.836C976.391 445.336 977.652 444.075 977.652 442.52V441.886C977.652 440.331 976.391 439.07 974.836 439.07Z" fill="#E8F9FF"/>
<path d="M962.406 516.475H919.045C918.504 516.45 917.981 516.269 917.54 515.956C917.098 515.642 916.756 515.209 916.553 514.706L913.796 508.809H967.655L964.898 514.706C964.697 515.21 964.355 515.644 963.913 515.958C963.471 516.272 962.948 516.452 962.406 516.475Z" fill="#263238"/>
<path opacity="0.5" d="M962.406 516.475H919.045C918.504 516.45 917.981 516.269 917.54 515.956C917.098 515.642 916.756 515.209 916.553 514.706L913.796 508.809H967.655L964.898 514.706C964.697 515.21 964.355 515.644 963.913 515.958C963.471 516.272 962.948 516.452 962.406 516.475Z" fill="#E8F9FF"/>
<path d="M966.933 505.387H914.534C912.979 505.387 911.718 506.648 911.718 508.203V508.837C911.718 510.393 912.979 511.653 914.534 511.653H966.933C968.489 511.653 969.749 510.393 969.749 508.837V508.203C969.749 506.648 968.489 505.387 966.933 505.387Z" fill="#263238"/>
<path opacity="0.2" d="M966.933 505.387H914.534C912.979 505.387 911.718 506.648 911.718 508.203V508.837C911.718 510.393 912.979 511.653 914.534 511.653H966.933C968.489 511.653 969.749 510.393 969.749 508.837V508.203C969.749 506.648 968.489 505.387 966.933 505.387Z" fill="#E8F9FF"/>
<path d="M965.519 565.94H951.881L996.23 215.479H1009.87L965.519 565.94Z" fill="#263238"/>
<path opacity="0.7" d="M965.519 565.94H951.881L996.23 215.479H1009.87L965.519 565.94Z" fill="#E8F9FF"/>
<path d="M1027.53 217.277H941.103C940.563 217.248 940.042 217.066 939.601 216.753C939.16 216.44 938.817 216.008 938.612 215.508L935.854 209.61H1032.78L1030.04 215.508C1029.82 216.004 1029.48 216.432 1029.03 216.744C1028.59 217.056 1028.07 217.241 1027.53 217.277Z" fill="#263238"/>
<path opacity="0.5" d="M1027.53 217.277H941.103C940.563 217.248 940.042 217.066 939.601 216.753C939.16 216.44 938.817 216.008 938.612 215.508L935.854 209.61H1032.78L1030.04 215.508C1029.82 216.004 1029.48 216.432 1029.03 216.744C1028.59 217.056 1028.07 217.241 1027.53 217.277Z" fill="#E8F9FF"/>
<path d="M1032.06 206.175H936.59C935.034 206.175 933.773 207.436 933.773 208.991V209.625C933.773 211.181 935.034 212.441 936.59 212.441H1032.06C1033.61 212.441 1034.87 211.181 1034.87 209.625V208.991C1034.87 207.436 1033.61 206.175 1032.06 206.175Z" fill="#263238"/>
<path opacity="0.2" d="M1032.06 206.175H936.59C935.034 206.175 933.773 207.436 933.773 208.991V209.625C933.773 211.181 935.034 212.441 936.59 212.441H1032.06C1033.61 212.441 1034.87 211.181 1034.87 209.625V208.991C1034.87 207.436 1033.61 206.175 1032.06 206.175Z" fill="#E8F9FF"/>
<path d="M1033.58 215.818L1022.24 207.827L1016.93 218.723C1016.93 218.723 1024.07 225.417 1031.35 221.937L1033.58 215.818Z" fill="#EBB376"/>
<path d="M1012.45 206.603L1010.44 215.656L1016.93 218.722L1022.24 207.827L1012.45 206.603Z" fill="#EBB376"/>
<path d="M1111.08 190.606C1108.86 194.041 1106.59 197.329 1104.21 200.544C1102.43 202.917 1100.6 205.262 1098.68 207.562C1098.11 208.269 1097.52 208.962 1096.93 209.655C1095.76 210.997 1094.58 212.339 1093.35 213.666C1091.87 215.317 1090.21 216.939 1088.48 218.531L1087.49 219.416C1086.21 220.607 1084.85 221.724 1083.44 222.762C1081.34 224.338 1079.03 225.623 1076.58 226.581C1075.86 226.863 1075.11 227.09 1074.36 227.259C1073.63 227.436 1073.01 227.525 1072.35 227.643C1071.18 227.802 1070.01 227.9 1068.83 227.938C1066.6 228.011 1064.52 227.938 1062.47 227.834C1058.4 227.613 1054.48 227.068 1050.6 226.493C1045.65 225.711 1040.78 224.738 1035.96 223.544C1034.18 223.131 1032.41 222.674 1030.64 222.202L1027.82 221.421C1026.93 221.158 1026.15 220.597 1025.61 219.83C1025.07 219.064 1024.81 218.137 1024.88 217.204C1024.9 216.905 1024.95 216.609 1025.02 216.319C1025.23 215.553 1025.67 214.866 1026.26 214.342C1026.86 213.818 1027.6 213.48 1028.39 213.371C1028.63 213.341 1028.89 213.341 1029.14 213.371H1029.21H1030.24C1032.47 213.444 1034.67 213.533 1036.92 213.592C1041.89 213.769 1046.84 213.901 1051.67 213.975C1055.37 213.975 1059.04 213.975 1062.59 213.857C1064.36 213.783 1066.09 213.636 1067.65 213.415C1068.82 213.332 1069.97 213.048 1071.04 212.574C1072.06 211.986 1073.02 211.289 1073.9 210.496C1074.78 209.729 1075.71 208.874 1076.63 207.945C1076.89 207.694 1077.14 207.429 1077.39 207.163C1077.91 206.633 1078.41 206.072 1078.87 205.512C1080.14 204.126 1081.36 202.681 1082.58 201.192C1083.13 200.514 1083.69 199.836 1084.23 199.143C1086.89 195.796 1089.53 192.272 1092.08 188.719C1093.82 186.316 1095.53 183.883 1097.18 181.494L1097.27 181.347C1098.09 180.146 1099.22 179.188 1100.54 178.575L1106.72 178.841L1108.33 178.929C1108.49 179.022 1108.66 179.125 1108.81 179.239C1110.6 180.465 1111.83 182.339 1112.26 184.462C1112.68 186.584 1112.26 188.789 1111.08 190.606Z" fill="#FFB573"/>
<path d="M1107.24 200.396C1104.45 204.418 1101.33 208.197 1097.9 211.69C1096.99 212.634 1096.02 213.607 1094.95 214.639L1093.3 213.71L1078.84 205.571L1077.5 204.82C1077.5 204.82 1078.44 203.345 1079.84 201.296C1081.6 198.642 1084.09 194.853 1086.4 191.285C1088.2 188.483 1089.88 185.815 1090.99 183.913C1092.22 181.806 1093.84 179.954 1095.77 178.458L1100.51 178.62L1106.69 178.885L1108.3 178.974L1112.41 179.18C1114.31 183.574 1113.9 190.547 1107.24 200.396Z" fill="#407BFF"/>
<path opacity="0.7" d="M1107.24 200.396C1104.45 204.418 1101.33 208.197 1097.9 211.69C1096.99 212.634 1096.02 213.607 1094.95 214.639L1093.3 213.71L1078.84 205.571L1077.5 204.82C1077.5 204.82 1078.44 203.345 1079.84 201.296C1081.6 198.642 1084.09 194.853 1086.4 191.285C1088.2 188.483 1089.88 185.815 1090.99 183.913C1092.22 181.806 1093.84 179.954 1095.77 178.458L1100.51 178.62L1106.69 178.885L1108.3 178.974L1112.41 179.18C1114.31 183.574 1113.9 190.547 1107.24 200.396Z" fill="#E8F9FF"/>
<path d="M891.62 565.711C891.627 565.794 891.627 565.878 891.62 565.962C891.627 566.001 891.627 566.04 891.62 566.08C891.602 566.155 891.578 566.229 891.547 566.301C891.504 566.4 891.449 566.494 891.384 566.581C891.32 566.686 891.246 566.785 891.163 566.876C890.467 567.553 889.646 568.089 888.745 568.453L888.023 568.763C887.315 569.058 886.549 569.338 885.62 569.618C885.059 569.795 884.47 569.957 883.836 570.134C873.515 572.921 853.684 575.162 828.753 576.4L825.804 576.548L820.968 576.754L815.999 576.931L812.564 577.049C809.836 577.123 807.079 577.196 804.278 577.241H803.261H801.359H799.516C796.935 577.241 794.326 577.241 791.701 577.329H784.58C775.97 577.329 767.58 577.226 759.516 577.005L755.948 576.887C754.916 576.887 753.883 576.887 752.866 576.798L748.119 576.636L741.941 576.371L740.334 576.282L736.22 576.076C729.453 575.692 723.098 575.25 717.26 574.719C703.283 573.481 692.195 571.874 685.339 570.016L684.75 569.854L684.101 569.662C682.995 569.338 682.037 568.999 681.152 568.674C680.842 568.542 680.548 568.424 680.282 568.291C679.842 568.085 679.413 567.854 678.999 567.598C678.859 567.517 678.725 567.423 678.601 567.318L678.277 567.067L677.967 566.758C677.885 566.672 677.811 566.578 677.746 566.478C677.638 566.321 677.558 566.146 677.51 565.962V565.799C677.503 565.731 677.503 565.662 677.51 565.593C677.51 560.786 703.799 556.658 741.454 554.845L744.477 554.697L748.546 554.535L754.798 554.314L758.174 554.211L766.106 554.019H766.534H768.819H770.367C772.697 554.019 775.041 554.019 777.415 553.945H778.122C780.26 553.945 782.413 553.945 784.58 553.945C793.308 553.945 801.786 554.063 809.91 554.27L815.808 554.461L818.314 554.55H818.565L821.307 554.653L823.106 554.727L827.765 554.933L832.188 555.154C840.621 555.611 848.406 556.186 855.424 556.865C877.599 559.061 891.62 562.202 891.62 565.711Z" fill="#263238"/>
<path opacity="0.4" d="M677.481 565.711C677.481 560.904 703.77 556.776 741.425 554.963L744.448 554.815L748.517 554.653C754.164 554.432 760.032 554.27 766.077 554.137H768.79H770.338C774.982 554.063 779.73 554.034 784.551 554.034C793.28 554.034 801.757 554.152 809.881 554.358L815.779 554.55C830.596 555.036 844.043 555.877 855.366 556.968C877.585 559.12 891.606 562.261 891.606 565.814C891.606 567.377 888.82 568.881 883.762 570.237C874.422 568.049 864.929 566.57 855.366 565.814C844.043 564.723 830.596 563.883 815.779 563.396L809.881 563.204C801.757 562.998 793.28 562.88 784.551 562.88C779.73 562.88 774.982 562.88 770.338 562.983H768.746H766.033C759.988 563.116 754.12 563.278 748.473 563.499L744.404 563.661L741.381 563.809C715.978 565.033 695.764 567.303 685.355 570.134C680.283 568.763 677.481 567.288 677.481 565.711Z" fill="#E8F9FF"/>
<path d="M775.542 560.27C774.731 561.243 773.979 562.084 773.227 562.895C772.844 563.293 772.475 563.691 772.077 564.089C771.369 564.811 770.676 565.563 769.954 566.212C769.482 566.684 768.995 567.141 768.479 567.598C765.981 569.909 763.337 572.056 760.562 574.026L760.09 574.351C759.677 574.645 759.25 574.926 758.807 575.22C757.879 575.84 756.92 576.444 755.859 577.004C754.827 577.004 753.795 577.004 752.777 576.916L748.03 576.754L741.852 576.488L740.245 576.4L736.131 576.193C729.364 575.81 723.009 575.368 717.171 574.837L719.471 574.1C725.368 572.183 731.266 570.384 737.016 568.497C738.49 568.011 739.862 567.539 741.174 567.023C742.305 566.648 743.392 566.154 744.418 565.548C745.066 565.165 745.744 564.737 746.423 564.28C746.777 564.045 747.145 563.794 747.514 563.514C748.575 562.762 749.637 561.921 750.684 561.052C752.807 559.312 754.886 557.395 756.95 555.405L758.056 554.314C758.719 553.68 759.368 553.046 760.002 552.382L762.951 549.433L763.127 549.242C764.017 548.317 765.107 547.61 766.314 547.175C767.521 546.741 768.812 546.59 770.087 546.735C771.946 546.948 773.678 547.786 774.998 549.112C776.319 550.438 777.15 552.173 777.355 554.033C777.485 555.141 777.392 556.264 777.08 557.335C776.769 558.407 776.246 559.405 775.542 560.27Z" fill="#FFB573"/>
<path d="M772.239 543.345C764.012 543.153 745.7 563.603 745.7 563.603L760.813 576.99C760.813 576.99 774.303 571.092 777.606 561.435C780.908 551.778 772.239 543.345 772.239 543.345Z" fill="#407BFF"/>
<path opacity="0.7" d="M777.592 561.435C776.024 565.351 773.407 568.759 770.029 571.284C767.189 573.553 764.085 575.469 760.784 576.99L756.73 573.393L745.672 563.603C745.672 563.603 763.969 543.153 772.211 543.345C772.24 543.345 780.939 551.719 777.592 561.435Z" fill="#E8F9FF"/>
<path opacity="0.1" d="M770.072 571.283C767.233 573.552 764.129 575.468 760.828 576.989L756.773 573.392C758.927 567.088 762.779 561.501 767.905 557.247C769.704 560.609 770.294 567.759 770.072 571.283Z" fill="black"/>
<path d="M829.062 551.97C828.973 552.161 828.885 552.338 828.811 552.53C828.575 553.046 828.354 553.562 828.133 554.093C828 554.366 827.882 554.647 827.779 554.933C827.748 554.989 827.723 555.049 827.705 555.11C827.597 555.33 827.503 555.556 827.425 555.788C827.174 556.378 826.938 556.982 826.703 557.602C826.467 558.221 826.128 559.15 825.847 559.931C825.847 559.931 825.847 560.005 825.847 560.034C825.641 560.595 825.449 561.155 825.258 561.73C825.066 562.305 824.86 562.88 824.683 563.455C824.676 563.514 824.676 563.573 824.683 563.632C824.506 564.163 824.329 564.694 824.167 565.224C823.827 566.345 823.488 567.465 823.164 568.615L823.076 568.925C822.368 571.431 821.704 573.982 821.085 576.548C821.078 576.601 821.078 576.656 821.085 576.71L816.116 576.887L812.681 577.005C809.954 577.078 807.196 577.152 804.395 577.196H803.378H801.476H799.633C797.053 577.196 794.443 577.196 791.819 577.285H784.697C776.087 577.285 767.698 577.182 759.633 576.96L759.854 575.869C759.854 575.633 759.957 575.412 760.016 575.191C760.075 574.97 760.105 574.749 760.164 574.528C760.194 574.421 760.218 574.313 760.237 574.203C760.896 571.255 761.584 568.566 762.301 566.138C762.567 565.283 762.803 564.472 763.053 563.661C763.142 563.411 763.216 563.16 763.304 562.91C763.496 562.305 763.687 561.73 763.879 561.17L764.189 560.27C764.351 559.813 764.513 559.356 764.675 558.929C764.837 558.501 765.044 557.911 765.221 557.454L765.707 556.216L766.592 554.078C767.27 552.456 767.934 551.041 768.553 549.788C768.671 549.581 768.774 549.36 768.877 549.153L769.496 547.959L770.219 546.647C770.264 546.582 770.303 546.512 770.337 546.441C770.587 545.984 770.838 545.571 771.059 545.217L771.634 544.303L772.327 543.3C776.703 542.882 781.1 542.739 785.493 542.873C786.422 542.873 787.366 542.946 788.324 543.005C789.283 543.064 790.153 543.153 791.155 543.271C793.263 543.507 795.578 543.831 798.04 544.229L802.67 545.025C804.218 545.305 805.752 545.586 807.226 545.88L808.007 546.043C809.172 546.264 810.307 546.5 811.354 546.721C812.077 546.868 812.829 547.03 813.507 547.207C813.875 547.296 814.229 547.37 814.583 547.473L815.659 547.738C817.001 548.077 818.328 548.446 819.581 548.8L820.805 549.168L823.09 549.876L825.095 550.525C827.381 551.277 828.899 551.837 829.121 551.911L829.062 551.97Z" fill="#407BFF"/>
<path opacity="0.7" d="M829.078 551.97C828.989 552.161 828.901 552.338 828.827 552.53C828.591 553.046 828.355 553.562 828.149 554.093C828.011 554.368 827.893 554.648 827.795 554.933C827.789 554.992 827.789 555.051 827.795 555.11C827.686 555.33 827.593 555.556 827.515 555.788C827.264 556.378 827.028 556.982 826.792 557.602C826.556 558.221 826.203 559.15 825.937 559.931C825.937 559.931 825.937 560.005 825.937 560.034C825.731 560.595 825.539 561.155 825.347 561.73C825.156 562.305 824.949 562.88 824.772 563.455V563.558C824.596 564.089 824.419 564.62 824.256 565.151C823.917 566.271 823.578 567.392 823.254 568.542L823.165 568.851C822.458 571.358 821.794 573.908 821.175 576.474C821.168 576.528 821.168 576.582 821.175 576.636L816.206 576.813L812.771 576.931C810.043 577.005 807.286 577.078 804.485 577.123H803.468H801.566H799.723C797.142 577.123 794.533 577.123 791.908 577.211H784.787C776.177 577.211 767.788 577.108 759.723 576.887L759.944 575.81C760.047 575.339 760.135 574.896 760.239 574.454C760.269 574.347 760.293 574.239 760.312 574.13C760.971 571.181 761.659 568.493 762.377 566.065C762.642 565.21 762.878 564.399 763.128 563.588C763.217 563.337 763.291 563.086 763.379 562.836C763.571 562.231 763.762 561.656 763.954 561.096L764.264 560.197C764.426 559.74 764.588 559.283 764.75 558.855C764.912 558.427 765.119 557.838 765.296 557.381L765.782 556.142L766.667 554.004C767.345 552.382 768.009 550.967 768.613 549.714C768.731 549.507 768.834 549.286 768.938 549.08L769.557 547.886L770.279 546.573C770.324 546.508 770.363 546.439 770.397 546.367L771.12 545.143L771.695 544.229L772.388 543.226C776.763 542.808 781.16 542.665 785.554 542.799C786.483 542.799 787.426 542.873 788.385 542.932C789.343 542.991 790.213 543.079 791.215 543.197C793.324 543.433 795.639 543.757 798.101 544.155L802.73 544.952C804.279 545.232 805.812 545.512 807.286 545.807L808.068 545.969C809.232 546.19 810.368 546.426 811.415 546.647C812.137 546.795 812.889 546.957 813.567 547.134C813.936 547.222 814.29 547.296 814.643 547.399L815.72 547.65C817.061 547.989 818.388 548.357 819.642 548.726L820.865 549.095L823.151 549.802L825.156 550.451C827.441 551.203 828.96 551.763 829.181 551.837L829.078 551.97Z" fill="#E8F9FF"/>
<path d="M802.405 525.327C802.405 525.327 802.862 541.014 804.351 543.344C805.84 545.673 811.222 546.749 811.222 546.749C811.222 546.749 798.291 553.178 792.246 551.969C786.201 550.76 783.297 542.872 783.297 542.872C783.297 542.872 787.514 543.034 788.546 542.459C789.578 541.884 787.735 531.49 787.735 531.49L802.405 525.327Z" fill="#EBB376"/>
<path opacity="0.2" d="M788.975 535.397L788.444 536.149C788.12 533.716 787.736 531.49 787.736 531.49L802.392 525.327C802.392 525.327 802.775 537.962 803.866 542.238C797.939 542.857 791.009 538.463 788.975 535.397Z" fill="black"/>
<path d="M797.393 498.981C801.404 501.074 807.139 507.827 800.858 510.083C794.577 512.338 790.508 495.398 797.393 498.981Z" fill="#263238"/>
<path d="M779.566 525.077C782.643 528.834 785.994 532.357 789.592 535.619C792.178 537.809 795.352 539.189 798.718 539.585C810.513 541.059 818.15 528.498 813.388 518.133C812.837 516.945 812.222 515.789 811.545 514.668C806.37 506.146 796.418 497.196 786.569 500.116C784.087 500.852 781.832 502.206 780.015 504.051C778.197 505.895 776.877 508.17 776.178 510.663C775.478 513.156 775.422 515.786 776.015 518.307C776.607 520.827 777.829 523.157 779.566 525.077Z" fill="#EBB376"/>
<path d="M784.419 524.369L784.964 526.138C786.001 529.541 787.584 532.753 789.653 535.648C792.239 537.838 795.414 539.218 798.779 539.614C810.575 541.088 818.212 528.527 813.45 518.162C812.898 516.974 812.283 515.818 811.607 514.697C811.607 514.697 812.491 518.855 811.725 520.786C811.725 520.786 807.301 519.651 805.119 521.464C805.119 521.464 800.431 520.181 796.45 525.15C794.63 526.34 792.474 526.907 790.304 526.766C788.135 526.625 786.069 525.784 784.419 524.369Z" fill="#263238"/>
<path opacity="0.5" d="M784.419 524.369L784.964 526.138C786.001 529.541 787.584 532.753 789.653 535.648C792.239 537.838 795.414 539.218 798.779 539.614C810.575 541.088 818.212 528.527 813.45 518.162C812.898 516.974 812.283 515.818 811.607 514.697C811.607 514.697 812.491 518.855 811.725 520.786C811.725 520.786 807.301 519.651 805.119 521.464C805.119 521.464 800.431 520.181 796.45 525.15C794.63 526.34 792.474 526.907 790.304 526.766C788.135 526.625 786.069 525.784 784.419 524.369Z" fill="#E8F9FF"/>
<path d="M767.269 519.562C761.917 515.066 766.989 508.564 772.592 506.293C773.197 506.053 773.713 505.631 774.066 505.084L780.716 515.301C780.111 515.582 779.507 515.862 778.932 516.083C778.932 516.083 786.702 522.954 785.95 529.795C775.098 532.861 764.63 527.273 767.269 519.562Z" fill="#263238"/>
<path d="M781.912 534.984C783.05 535.757 784.332 536.296 785.682 536.566C787.031 536.837 788.422 536.836 789.77 536.561C790.031 536.512 790.287 536.443 790.537 536.355C792.778 534.246 786.114 526.83 785.804 526.447C785.091 526.23 784.34 526.17 783.602 526.272C782.863 526.374 782.156 526.635 781.529 527.037C780.895 527.504 780.386 528.12 780.048 528.832C779.71 529.543 779.553 530.326 779.591 531.113C779.628 531.9 779.86 532.664 780.265 533.34C780.67 534.015 781.236 534.58 781.912 534.984Z" fill="#EBB376"/>
<path d="M794.637 516.997C795.182 517.705 796.008 517.985 796.48 517.616C796.952 517.248 796.863 516.363 796.303 515.655C795.743 514.948 794.917 514.667 794.46 515.036C794.003 515.405 794.077 516.289 794.637 516.997Z" fill="#263238"/>
<path d="M802.655 510.614C803.201 511.321 804.027 511.601 804.498 511.233C804.97 510.864 804.882 509.994 804.321 509.272C803.761 508.549 802.935 508.284 802.478 508.667C802.021 509.051 802.051 509.921 802.655 510.614Z" fill="#263238"/>
<path d="M800.342 513.002C802.859 514.403 805.558 515.45 808.362 516.113C808.009 518.207 805.414 519.371 805.414 519.371L800.342 513.002Z" fill="#D58745"/>
<path d="M791.464 511.512C791.382 511.556 791.313 511.622 791.267 511.703C791.22 511.784 791.196 511.876 791.199 511.969C791.211 512.638 791.064 513.3 790.772 513.902C790.48 514.504 790.051 515.029 789.518 515.434C789.404 515.515 789.324 515.635 789.294 515.771C789.264 515.908 789.286 516.05 789.356 516.171C789.394 516.23 789.442 516.282 789.5 516.322C789.557 516.363 789.622 516.391 789.691 516.406C789.759 516.421 789.83 516.423 789.899 516.41C789.968 516.398 790.034 516.371 790.093 516.333C790.78 515.823 791.335 515.154 791.709 514.385C792.084 513.615 792.268 512.766 792.246 511.91C792.246 511.772 792.192 511.639 792.096 511.54C791.999 511.441 791.868 511.383 791.73 511.379C791.63 511.397 791.538 511.443 791.464 511.512Z" fill="#263238"/>
<path d="M803.908 504.848C803.992 504.786 804.054 504.698 804.085 504.597C804.133 504.466 804.127 504.322 804.069 504.195C804.011 504.068 803.906 503.969 803.775 503.919C802.992 503.614 802.147 503.505 801.312 503.6C800.477 503.695 799.678 503.992 798.983 504.465C798.891 504.555 798.835 504.676 798.826 504.804C798.816 504.933 798.854 505.06 798.931 505.163C799.009 505.266 799.121 505.337 799.248 505.364C799.374 505.39 799.505 505.369 799.617 505.305C800.173 504.938 800.81 504.711 801.472 504.645C802.135 504.578 802.804 504.673 803.421 504.922C803.502 504.951 803.589 504.959 803.674 504.947C803.759 504.934 803.839 504.9 803.908 504.848Z" fill="#263238"/>
<path d="M805.37 529.086C805.658 528.977 805.939 528.849 806.211 528.703L806.933 522.894C806.933 522.894 806.579 522.894 806.034 522.894C804.205 522.894 800.136 523.307 799.045 525.401C798.926 525.641 798.832 525.893 798.765 526.152C798.49 527.089 798.558 528.093 798.957 528.983C799.62 530.222 801.389 530.87 805.37 529.086Z" fill="#263238"/>
<path d="M798.763 526.138L805.854 523.573L806.031 522.88C804.203 522.88 800.134 523.293 799.043 525.386C798.924 525.627 798.83 525.879 798.763 526.138Z" fill="#E8F9FF"/>
<path d="M805.369 529.087C804.13 527.023 800.828 528.084 798.955 528.998C799.619 530.222 801.388 530.871 805.369 529.087Z" fill="#DE5753"/>
<path d="M767.271 519.563C765.089 517.882 761.905 513.356 766.18 508.638C770.456 503.92 775.513 501.59 773.125 498.169C770.736 494.749 774.968 491.844 777.946 494.071C777.946 494.071 784.949 482.615 789.933 491.417C789.933 491.417 794.813 488.055 797.806 491.667C800.799 495.28 801.418 499.143 797.482 500.514C793.545 501.885 793.176 502.312 793.855 504.598C794.533 506.883 791.112 508.77 791.112 508.77C791.112 508.77 793.235 507.414 792.026 505.821C791.813 506.83 791.31 507.755 790.58 508.483C789.849 509.211 788.923 509.711 787.913 509.92C784.094 511.115 785.863 514.83 785.863 514.83C785.863 514.83 783.814 515.626 783.372 512.707C783.372 512.707 781.779 519.224 777.474 520.845C773.169 522.467 770.515 522.084 767.271 519.563Z" fill="#263238"/>
<path opacity="0.1" d="M822.957 568.969C822.25 571.476 821.586 574.026 820.967 576.592C820.96 576.646 820.96 576.7 820.967 576.754L815.998 576.931L812.563 577.049C809.835 577.122 807.078 577.196 804.277 577.24H803.26H801.358H799.515C801.303 573.88 803.822 570.962 806.887 568.704C807.432 568.289 808.003 567.91 808.597 567.568C809.823 566.895 811.154 566.432 812.533 566.197C816.237 565.725 819.978 566.72 822.957 568.969Z" fill="black"/>
<path d="M832.852 564.088C832.778 565.532 832.325 566.93 831.54 568.143C829.667 571.092 827.765 573.834 825.775 576.547L820.939 576.753L815.97 576.93L812.535 577.048C809.807 577.122 807.05 577.196 804.249 577.24C804.411 577.063 804.544 576.886 804.691 576.709C807.345 573.362 809.984 569.838 812.535 566.285C813.258 565.297 814.009 564.295 814.658 563.336C815.675 561.862 816.649 560.506 817.607 559.105L817.71 558.958C818.757 557.445 820.275 556.322 822.028 555.764C823.781 555.207 825.669 555.246 827.397 555.876C828.061 556.117 828.69 556.444 829.269 556.849C830.435 557.65 831.375 558.735 832.003 560.003C832.63 561.27 832.922 562.676 832.852 564.088Z" fill="#FFB573"/>
<path d="M833.693 564.132C832.906 568.527 831.203 572.706 828.695 576.399L825.746 576.547L820.91 576.753L815.941 576.93L812.506 577.048C809.778 577.122 807.021 577.195 804.22 577.24H803.203H801.301C802.937 574.763 804.957 571.667 806.859 568.733C808.157 566.698 809.395 564.752 810.398 563.1L811.445 561.375C813.089 558.533 815.447 556.17 818.286 554.519C821.545 552.669 825.261 551.78 829.004 551.954C830.262 552.77 831.32 553.859 832.101 555.139C833.686 557.851 834.251 561.041 833.693 564.132Z" fill="#407BFF"/>
<path opacity="0.7" d="M833.693 564.132C832.906 568.527 831.203 572.706 828.695 576.399L825.746 576.547L820.91 576.753L815.941 576.93L812.506 577.048C809.778 577.122 807.021 577.195 804.22 577.24H803.203H801.301C802.937 574.763 804.957 571.667 806.859 568.733C808.157 566.698 809.395 564.752 810.398 563.1L811.445 561.375C813.089 558.533 815.447 556.17 818.286 554.519C821.545 552.669 825.261 551.78 829.004 551.954C830.262 552.77 831.32 553.859 832.101 555.139C833.686 557.851 834.251 561.041 833.693 564.132Z" fill="#E8F9FF"/>
<path d="M1415.96 206.819L1378.33 216.901L1368.25 179.274L1346.53 185.093L1356.61 222.72L1318.99 232.802L1324.79 254.541L1362.42 244.459L1372.5 282.086L1394.25 276.258L1384.17 238.631L1421.8 228.549L1415.96 206.819Z" fill="#343B42"/>
<path d="M412.506 429.51L308.425 401.622L307.849 401.468L307.694 402.044L279.806 506.125L220.455 490.222L248.344 386.141L248.498 385.565L247.922 385.41L143.841 357.522L159.779 298.233L263.861 326.122L264.437 326.276L264.591 325.7L292.48 221.619L351.733 237.495L323.844 341.576L323.69 342.153L324.266 342.307L428.348 370.196L412.506 429.51Z" stroke="#343B42" stroke-width="1.1936"/>
<path d="M1537.04 500.555L1506.07 492.259L1505.5 492.104L1505.34 492.681L1497.05 523.645L1479.97 519.068L1488.26 488.104L1488.42 487.527L1487.84 487.373L1456.88 479.076L1461.46 462.014L1492.43 470.311L1493 470.465L1493.16 469.889L1501.46 438.925L1518.51 443.494L1510.21 474.458L1510.06 475.034L1510.63 475.189L1541.6 483.486L1537.04 500.555Z" stroke="#343B42" stroke-width="1.1936"/>
<path d="M538.761 248.061L518.712 228.012L538.761 207.963L527.189 196.391L507.14 216.44L487.09 196.391L475.5 207.963L495.549 228.012L475.5 248.061L487.09 259.652L507.14 239.602L527.189 259.652L538.761 248.061Z" fill="white"/>
<path d="M1192.6 441.025L1189.81 425.694L1205.14 422.906L1203.53 414.057L1188.2 416.845L1185.41 401.513L1176.55 403.117L1179.34 418.448L1164.01 421.236L1165.62 430.099L1180.95 427.311L1183.74 442.643L1192.6 441.025Z" fill="white"/>
</svg>
